<?xml version="1.0" encoding="UTF-8" standalone="no"?>
<!-- Created with Inkscape (http://www.inkscape.org/) -->

<svg
   xmlns:dc="http://purl.org/dc/elements/1.1/"
   xmlns:cc="http://creativecommons.org/ns#"
   xmlns:rdf="http://www.w3.org/1999/02/22-rdf-syntax-ns#"
   xmlns:svg="http://www.w3.org/2000/svg"
   xmlns="http://www.w3.org/2000/svg"
   xmlns:sodipodi="http://sodipodi.sourceforge.net/DTD/sodipodi-0.dtd"
   xmlns:inkscape="http://www.inkscape.org/namespaces/inkscape"
   width="137.70027"
   height="48"
   id="svg4412"
   version="1.1"
   inkscape:version="0.48.3.1 r9886"
   sodipodi:docname="logo-small.svg"
   inkscape:export-filename="/home/john/work/Dropbox/ARG/OVA/logo-small.png"
   inkscape:export-xdpi="183.12"
   inkscape:export-ydpi="183.12">
  <defs
     id="defs4414" />
  <sodipodi:namedview
     id="base"
     pagecolor="#000000"
     bordercolor="#666666"
     borderopacity="1.0"
     inkscape:pageopacity="0"
     inkscape:pageshadow="2"
     inkscape:zoom="5.0662824"
     inkscape:cx="36.5"
     inkscape:cy="17.5"
     inkscape:document-units="px"
     inkscape:current-layer="layer1"
     showgrid="false"
     fit-margin-top="0"
     fit-margin-left="0"
     fit-margin-right="0"
     fit-margin-bottom="0"
     inkscape:window-width="1920"
     inkscape:window-height="996"
     inkscape:window-x="0"
     inkscape:window-y="31"
     inkscape:window-maximized="1" />
  <metadata
     id="metadata4417">
    <rdf:RDF>
      <cc:Work
         rdf:about="">
        <dc:format>image/svg+xml</dc:format>
        <dc:type
           rdf:resource="http://purl.org/dc/dcmitype/StillImage" />
        <dc:title></dc:title>
      </cc:Work>
    </rdf:RDF>
  </metadata>
  <g
     inkscape:label="Layer 1"
     inkscape:groupmode="layer"
     id="layer1"
     transform="translate(-313.22943,-505.8944)">
    <g
       id="g4583"
       transform="matrix(1.1146103,0,0,1.1146103,-35.899307,-63.481982)">
      <path
         inkscape:export-ydpi="100.3149"
         inkscape:export-xdpi="100.3149"
         inkscape:export-filename="/home/john/Desktop/ova2/res/img/logo-small.png"
         inkscape:connector-curvature="0"
         id="path3040"
         d="m 342.1613,510.83 c -3.94665,0 -7.42264,2.1217 -9.45092,5.34077 -1.53231,-1.13823 -3.48872,-1.81779 -5.62229,-1.81779 -4.9107,0 -8.89593,3.6135 -8.89593,8.07551 0,0.72084 0.11071,1.41817 0.30564,2.08322 -3.15689,1.94814 -5.26838,5.49958 -5.26838,9.56353 0,6.15708 4.85179,11.14807 10.83438,11.14807 l 28.61014,0 c 3.58956,0 7.0138,-5.46454 7.0138,-10.89872 0,-5.13091 -3.04828,-8.8789 -6.41054,-9.28202 0.1381,-0.74353 0.20913,-1.51435 0.20913,-2.30039 0,-6.58085 -5.06823,-11.91218 -11.32503,-11.91218 z"
         style="fill:#ffffff;fill-opacity:1;stroke:none" />
      <g
         id="text2989"
         style="font-size:31.14555931px;font-style:normal;font-weight:normal;line-height:125%;letter-spacing:0px;word-spacing:0px;fill:#ffffff;fill-opacity:0.8627451;stroke:none;font-family:Sans">
        <path
           id="path4577"
           style="font-size:37.37467194px;font-variant:normal;font-weight:800;font-stretch:normal;text-align:start;line-height:125%;writing-mode:lr-tb;text-anchor:start;fill:#ffffff;fill-opacity:1;font-family:Exo 2;-inkscape-font-specification:Exo 2 Ultra-Bold"
           d="m 375.83118,518.58874 c 2.94013,3e-5 5.21998,0.39869 6.83957,1.19599 1.61955,0.77244 2.81554,2.13038 3.58797,4.07384 0.77238,1.91859 1.15859,4.63448 1.15861,8.14768 -2e-5,3.51323 -0.38623,6.24158 -1.15861,8.18505 -0.77243,1.91857 -1.96842,3.27652 -3.58797,4.07384 -1.61959,0.77241 -3.89944,1.15862 -6.83957,1.15862 -4.33547,0 -7.35035,-0.93437 -9.04467,-2.8031 -1.6694,-1.89365 -2.5041,-5.43178 -2.5041,-10.61441 0,-5.1826 0.8347,-8.70828 2.5041,-10.57703 1.69432,-1.89363 4.7092,-2.84045 9.04467,-2.84048 m 3.32635,7.02644 c -0.57309,-1.0963 -1.68187,-1.64446 -3.32635,-1.64448 -1.64449,2e-5 -2.75327,0.54818 -3.32634,1.64448 -0.57309,1.09634 -0.85963,3.2267 -0.85962,6.39107 -10e-6,3.1644 0.28653,5.29475 0.85962,6.39107 0.57307,1.09633 1.68185,1.64449 3.32634,1.64449 1.64448,0 2.75326,-0.54816 3.32635,-1.64449 0.57306,-1.09632 0.8596,-3.22667 0.85962,-6.39107 -2e-5,-3.16437 -0.28656,-5.29473 -0.85962,-6.39107"
           inkscape:connector-curvature="0" />
        <path
           id="path4579"
           style="font-size:37.37467194px;font-variant:normal;font-weight:800;font-stretch:normal;text-align:start;line-height:125%;writing-mode:lr-tb;text-anchor:start;fill:#ffffff;fill-opacity:1;font-family:Exo 2;-inkscape-font-specification:Exo 2 Ultra-Bold"
           d="m 412.92555,519.11199 -6.61532,23.88241 c -0.1246,0.57308 -0.41114,1.03404 -0.85962,1.38287 -0.44851,0.34883 -0.97176,0.52324 -1.56973,0.52324 l -6.24157,0 c -0.59801,0 -1.12125,-0.17441 -1.56974,-0.52324 -0.4485,-0.34883 -0.73504,-0.80979 -0.85962,-1.38287 l -6.61531,-23.88241 7.21331,0 3.96171,17.60347 c 0.19932,0.94683 0.37374,1.91857 0.52325,2.91522 l 0.93436,0 c 0.0498,-0.49832 0.22424,-1.47006 0.52325,-2.91522 l 3.92434,-17.60347 7.25069,0"
           inkscape:connector-curvature="0" />
        <path
           id="path4581"
           style="font-size:37.37467194px;font-variant:normal;font-weight:800;font-stretch:normal;text-align:start;line-height:125%;writing-mode:lr-tb;text-anchor:start;fill:#ffffff;fill-opacity:1;font-family:Exo 2;-inkscape-font-specification:Exo 2 Ultra-Bold"
           d="m 428.03192,538.77107 -7.92343,0 -1.53236,6.12944 -7.17594,0 7.06382,-23.95716 c 0.12457,-0.54814 0.39865,-0.98418 0.82224,-1.30812 0.44849,-0.3488 0.95927,-0.52322 1.53236,-0.52324 l 6.50319,0 c 0.57307,2e-5 1.07139,0.17444 1.49499,0.52324 0.44848,0.32394 0.74748,0.75998 0.89699,1.30812 l 7.02644,23.95716 -7.17594,0 -1.53236,-6.12944 m -1.30811,-5.08296 -1.64449,-6.61532 c -0.27409,-1.29563 -0.43605,-2.19262 -0.48587,-2.69097 l -1.00911,0 c -0.17443,0.94684 -0.34885,1.84383 -0.52325,2.69097 l -1.64448,6.61532 5.3072,0"
           inkscape:connector-curvature="0" />
      </g>
      <g
         id="text2993"
         style="font-size:25.3653965px;font-style:normal;font-weight:normal;line-height:100%;letter-spacing:0px;word-spacing:0px;fill:#fcd674;fill-opacity:1;stroke:none;font-family:Sans">
        <path
           id="path4518"
           style="font-size:7.60961771px;font-variant:normal;font-stretch:normal;text-align:center;line-height:100%;writing-mode:lr-tb;text-anchor:middle;fill:#fcd674;font-family:Sans;-inkscape-font-specification:Sans"
           d="m 316.71476,548.62933 c -0.36661,0 -0.65643,0.14368 -0.86946,0.43101 -0.21303,0.28487 -0.31955,0.67625 -0.31955,1.17414 0,0.4979 0.10528,0.89052 0.31583,1.17786 0.21303,0.28487 0.50409,0.4273 0.87318,0.4273 0.36413,0 0.65271,-0.14367 0.86574,-0.43102 0.21303,-0.28734 0.31954,-0.67872 0.31954,-1.17414 0,-0.49293 -0.10651,-0.88308 -0.31954,-1.17042 -0.21303,-0.28982 -0.50161,-0.43473 -0.86574,-0.43473 m 0,-0.57964 c 0.59449,10e-6 1.06143,0.19322 1.40079,0.57964 0.33936,0.38643 0.50904,0.92148 0.50904,1.60515 0,0.68121 -0.16968,1.21626 -0.50904,1.60516 -0.33936,0.38642 -0.8063,0.57964 -1.40079,0.57964 -0.59698,0 -1.06515,-0.19322 -1.40451,-0.57964 -0.33689,-0.3889 -0.50533,-0.92395 -0.50533,-1.60516 0,-0.68367 0.16844,-1.21872 0.50533,-1.60515 0.33936,-0.38642 0.80753,-0.57963 1.40451,-0.57964"
           inkscape:connector-curvature="0" />
        <path
           id="path4520"
           style="font-size:7.60961771px;font-variant:normal;font-stretch:normal;text-align:center;line-height:100%;writing-mode:lr-tb;text-anchor:middle;fill:#fcd674;font-family:Sans;-inkscape-font-specification:Sans"
           d="m 323.2134,549.79976 0,2.51176 -0.68368,0 0,-2.48947 c 0,-0.39386 -0.0768,-0.68863 -0.23037,-0.88432 -0.15358,-0.19569 -0.38395,-0.29353 -0.6911,-0.29354 -0.36909,10e-6 -0.66015,0.11767 -0.87318,0.35299 -0.21303,0.23532 -0.31954,0.55611 -0.31954,0.96235 l 0,2.35199 -0.68739,0 0,-4.16151 0.68739,0 0,0.64652 c 0.16348,-0.25018 0.35546,-0.4372 0.57592,-0.56106 0.22294,-0.12385 0.47931,-0.18577 0.76914,-0.18578 0.47807,10e-6 0.83973,0.14863 1.08496,0.44588 0.24523,0.29477 0.36785,0.7295 0.36785,1.30419"
           inkscape:connector-curvature="0" />
        <path
           id="path4522"
           style="font-size:7.60961771px;font-variant:normal;font-stretch:normal;text-align:center;line-height:100%;writing-mode:lr-tb;text-anchor:middle;fill:#fcd674;font-family:Sans;-inkscape-font-specification:Sans"
           d="m 324.58447,546.53 0.68367,0 0,5.78152 -0.68367,0 0,-5.78152"
           inkscape:connector-curvature="0" />
        <path
           id="path4524"
           style="font-size:7.60961771px;font-variant:normal;font-stretch:normal;text-align:center;line-height:100%;writing-mode:lr-tb;text-anchor:middle;fill:#fcd674;font-family:Sans;-inkscape-font-specification:Sans"
           d="m 326.69495,548.15001 0.68368,0 0,4.16151 -0.68368,0 0,-4.16151 m 0,-1.62001 0.68368,0 0,0.86574 -0.68368,0 0,-0.86574"
           inkscape:connector-curvature="0" />
        <path
           id="path4526"
           style="font-size:7.60961771px;font-variant:normal;font-stretch:normal;text-align:center;line-height:100%;writing-mode:lr-tb;text-anchor:middle;fill:#fcd674;font-family:Sans;-inkscape-font-specification:Sans"
           d="m 332.26468,549.79976 0,2.51176 -0.68367,0 0,-2.48947 c -10e-6,-0.39386 -0.0768,-0.68863 -0.23037,-0.88432 -0.15359,-0.19569 -0.38395,-0.29353 -0.69111,-0.29354 -0.36909,10e-6 -0.66015,0.11767 -0.87317,0.35299 -0.21304,0.23532 -0.31955,0.55611 -0.31955,0.96235 l 0,2.35199 -0.68739,0 0,-4.16151 0.68739,0 0,0.64652 c 0.16349,-0.25018 0.35546,-0.4372 0.57592,-0.56106 0.22294,-0.12385 0.47932,-0.18577 0.76914,-0.18578 0.47808,10e-6 0.83973,0.14863 1.08497,0.44588 0.24522,0.29477 0.36784,0.7295 0.36784,1.30419"
           inkscape:connector-curvature="0" />
        <path
           id="path4528"
           style="font-size:7.60961771px;font-variant:normal;font-stretch:normal;text-align:center;line-height:100%;writing-mode:lr-tb;text-anchor:middle;fill:#fcd674;font-family:Sans;-inkscape-font-specification:Sans"
           d="m 337.19533,550.05985 0,0.33441 -3.14343,0 c 0.0297,0.47064 0.17092,0.82982 0.42359,1.07753 0.25513,0.24523 0.60936,0.36785 1.06267,0.36785 0.26257,0 0.51647,-0.0322 0.7617,-0.0966 0.24771,-0.0644 0.49294,-0.16101 0.7357,-0.28982 l 0,0.64652 c -0.24524,0.10404 -0.49666,0.18331 -0.75428,0.2378 -0.25762,0.0545 -0.51895,0.0817 -0.784,0.0817 -0.66386,0 -1.19024,-0.19322 -1.57914,-0.57964 -0.38643,-0.38643 -0.57964,-0.90909 -0.57964,-1.568 0,-0.6812 0.18331,-1.2212 0.54992,-1.62002 0.36908,-0.40128 0.86574,-0.60192 1.48996,-0.60193 0.55982,10e-6 1.00198,0.18083 1.32649,0.54248 0.32697,0.35919 0.49045,0.84841 0.49046,1.46768 m -0.68368,-0.20064 c -0.005,-0.37404 -0.11023,-0.67253 -0.31583,-0.89547 -0.20312,-0.22294 -0.47312,-0.33441 -0.81,-0.33441 -0.38148,0 -0.6874,0.10776 -0.91777,0.32326 -0.22789,0.21551 -0.35918,0.51895 -0.39385,0.91033 l 2.43745,-0.004"
           inkscape:connector-curvature="0" />
        <path
           id="path4530"
           style="font-size:7.60961771px;font-variant:normal;font-stretch:normal;text-align:center;line-height:100%;writing-mode:lr-tb;text-anchor:middle;fill:#fcd674;font-family:Sans;-inkscape-font-specification:Sans"
           d="m 340.24958,548.15001 0.72455,0 1.30047,3.4927 1.30047,-3.4927 0.72455,0 -1.56057,4.16151 -0.92891,0 -1.56056,-4.16151"
           inkscape:connector-curvature="0" />
        <path
           id="path4532"
           style="font-size:7.60961771px;font-variant:normal;font-stretch:normal;text-align:center;line-height:100%;writing-mode:lr-tb;text-anchor:middle;fill:#fcd674;font-family:Sans;-inkscape-font-specification:Sans"
           d="m 345.24339,548.15001 0.68368,0 0,4.16151 -0.68368,0 0,-4.16151 m 0,-1.62001 0.68368,0 0,0.86574 -0.68368,0 0,-0.86574"
           inkscape:connector-curvature="0" />
        <path
           id="path4534"
           style="font-size:7.60961771px;font-variant:normal;font-stretch:normal;text-align:center;line-height:100%;writing-mode:lr-tb;text-anchor:middle;fill:#fcd674;font-family:Sans;-inkscape-font-specification:Sans"
           d="m 350.00684,548.27263 0,0.64652 c -0.19322,-0.0991 -0.39387,-0.17339 -0.60194,-0.22294 -0.20808,-0.0495 -0.42358,-0.0743 -0.64652,-0.0743 -0.33936,0 -0.5945,0.052 -0.76542,0.15606 -0.16844,0.10404 -0.25266,0.26009 -0.25266,0.46817 0,0.15853 0.0607,0.28363 0.18206,0.37527 0.12138,0.0892 0.36537,0.17464 0.73198,0.25638 l 0.23409,0.052 c 0.48551,0.10404 0.82982,0.25143 1.03295,0.44216 0.20559,0.18826 0.30839,0.45207 0.30839,0.79143 0,0.38643 -0.15358,0.69235 -0.46074,0.91776 -0.30468,0.22542 -0.72455,0.33813 -1.2596,0.33813 -0.22294,0 -0.45578,-0.0223 -0.69853,-0.0669 -0.24028,-0.0421 -0.49418,-0.10652 -0.76171,-0.19322 l 0,-0.70597 c 0.25266,0.13129 0.50161,0.23037 0.74684,0.29725 0.24523,0.0644 0.48799,0.0966 0.72827,0.0966 0.32202,0 0.56973,-0.0545 0.74312,-0.16349 0.1734,-0.11147 0.2601,-0.26752 0.2601,-0.46817 0,-0.18578 -0.0632,-0.32821 -0.1895,-0.4273 -0.12386,-0.0991 -0.39757,-0.19445 -0.82115,-0.2861 l -0.2378,-0.0557 c -0.42359,-0.0892 -0.72951,-0.22542 -0.91777,-0.40872 -0.18826,-0.18578 -0.28238,-0.43968 -0.28238,-0.76171 0,-0.39138 0.13871,-0.69358 0.41615,-0.90661 0.27743,-0.21303 0.67129,-0.31954 1.18157,-0.31955 0.25266,1e-5 0.49046,0.0186 0.7134,0.0557 0.22293,0.0372 0.42853,0.0929 0.6168,0.1672"
           inkscape:connector-curvature="0" />
        <path
           id="path4536"
           style="font-size:7.60961771px;font-variant:normal;font-stretch:normal;text-align:center;line-height:100%;writing-mode:lr-tb;text-anchor:middle;fill:#fcd674;font-family:Sans;-inkscape-font-specification:Sans"
           d="m 351.25157,550.66921 0,-2.5192 0.68368,0 0,2.49319 c 0,0.39386 0.0768,0.68987 0.23037,0.88804 0.15358,0.19569 0.38394,0.29354 0.69111,0.29354 0.36908,0 0.66014,-0.11767 0.87317,-0.35299 0.2155,-0.23532 0.32326,-0.5561 0.32326,-0.96235 l 0,-2.35943 0.68368,0 0,4.16151 -0.68368,0 0,-0.63909 c -0.16597,0.25267 -0.35918,0.44093 -0.57964,0.56478 -0.21799,0.12138 -0.47189,0.18207 -0.7617,0.18207 -0.47808,0 -0.84098,-0.14863 -1.08869,-0.44588 -0.2477,-0.29725 -0.37156,-0.73198 -0.37156,-1.30419 m 1.72034,-2.61952 0,0"
           inkscape:connector-curvature="0" />
        <path
           id="path4538"
           style="font-size:7.60961771px;font-variant:normal;font-stretch:normal;text-align:center;line-height:100%;writing-mode:lr-tb;text-anchor:middle;fill:#fcd674;font-family:Sans;-inkscape-font-specification:Sans"
           d="m 358.04375,550.21962 c -0.55239,0 -0.9351,0.0632 -1.14813,0.1895 -0.21303,0.12633 -0.31955,0.34184 -0.31955,0.64652 0,0.24276 0.0793,0.43597 0.2378,0.57964 0.16101,0.14119 0.379,0.21179 0.65396,0.21179 0.37899,0 0.68243,-0.13376 0.91033,-0.40129 0.23036,-0.27 0.34555,-0.62794 0.34555,-1.07382 l 0,-0.15234 -0.67996,0 m 1.36364,-0.28239 0,2.37429 -0.68368,0 0,-0.63165 c -0.15606,0.25266 -0.35051,0.43968 -0.58336,0.56106 -0.23284,0.1189 -0.51771,0.17835 -0.85459,0.17835 -0.42606,0 -0.76542,-0.1189 -1.01808,-0.3567 -0.25019,-0.24028 -0.37528,-0.56106 -0.37528,-0.96235 0,-0.46817 0.15605,-0.82116 0.46817,-1.05896 0.31459,-0.2378 0.78275,-0.3567 1.40451,-0.3567 l 0.95863,0 0,-0.0669 c 0,-0.31459 -0.10404,-0.55734 -0.31211,-0.72827 -0.2056,-0.17339 -0.49542,-0.26009 -0.86946,-0.26009 -0.2378,0 -0.46941,0.0285 -0.69483,0.0855 -0.22541,0.057 -0.44216,0.14244 -0.65023,0.25638 l 0,-0.63166 c 0.25018,-0.0966 0.49294,-0.16844 0.72826,-0.21551 0.23532,-0.0495 0.46445,-0.0743 0.68739,-0.0743 0.60193,10e-6 1.05153,0.15606 1.34878,0.46817 0.29725,0.31212 0.44587,0.78524 0.44588,1.41937"
           inkscape:connector-curvature="0" />
        <path
           id="path4540"
           style="font-size:7.60961771px;font-variant:normal;font-stretch:normal;text-align:center;line-height:100%;writing-mode:lr-tb;text-anchor:middle;fill:#fcd674;font-family:Sans;-inkscape-font-specification:Sans"
           d="m 360.81933,546.53 0.68367,0 0,5.78152 -0.68367,0 0,-5.78152"
           inkscape:connector-curvature="0" />
        <path
           id="path4542"
           style="font-size:7.60961771px;font-variant:normal;font-stretch:normal;text-align:center;line-height:100%;writing-mode:lr-tb;text-anchor:middle;fill:#fcd674;font-family:Sans;-inkscape-font-specification:Sans"
           d="m 362.92981,548.15001 0.68367,0 0,4.16151 -0.68367,0 0,-4.16151 m 0,-1.62001 0.68367,0 0,0.86574 -0.68367,0 0,-0.86574"
           inkscape:connector-curvature="0" />
        <path
           id="path4544"
           style="font-size:7.60961771px;font-variant:normal;font-stretch:normal;text-align:center;line-height:100%;writing-mode:lr-tb;text-anchor:middle;fill:#fcd674;font-family:Sans;-inkscape-font-specification:Sans"
           d="m 367.69325,548.27263 0,0.64652 c -0.19322,-0.0991 -0.39386,-0.17339 -0.60193,-0.22294 -0.20808,-0.0495 -0.42359,-0.0743 -0.64653,-0.0743 -0.33936,0 -0.5945,0.052 -0.76542,0.15606 -0.16844,0.10404 -0.25266,0.26009 -0.25266,0.46817 0,0.15853 0.0607,0.28363 0.18207,0.37527 0.12137,0.0892 0.36537,0.17464 0.73198,0.25638 l 0.23408,0.052 c 0.48551,0.10404 0.82982,0.25143 1.03295,0.44216 0.20559,0.18826 0.30839,0.45207 0.3084,0.79143 -10e-6,0.38643 -0.15359,0.69235 -0.46074,0.91776 -0.30469,0.22542 -0.72455,0.33813 -1.2596,0.33813 -0.22294,0 -0.45579,-0.0223 -0.69854,-0.0669 -0.24028,-0.0421 -0.49418,-0.10652 -0.76171,-0.19322 l 0,-0.70597 c 0.25267,0.13129 0.50161,0.23037 0.74685,0.29725 0.24523,0.0644 0.48798,0.0966 0.72826,0.0966 0.32202,0 0.56973,-0.0545 0.74313,-0.16349 0.17339,-0.11147 0.26009,-0.26752 0.26009,-0.46817 0,-0.18578 -0.0632,-0.32821 -0.1895,-0.4273 -0.12385,-0.0991 -0.39757,-0.19445 -0.82115,-0.2861 l -0.2378,-0.0557 c -0.42359,-0.0892 -0.72951,-0.22542 -0.91776,-0.40872 -0.18826,-0.18578 -0.28239,-0.43968 -0.28239,-0.76171 0,-0.39138 0.13871,-0.69358 0.41615,-0.90661 0.27743,-0.21303 0.67129,-0.31954 1.18157,-0.31955 0.25266,1e-5 0.49046,0.0186 0.7134,0.0557 0.22294,0.0372 0.42854,0.0929 0.6168,0.1672"
           inkscape:connector-curvature="0" />
        <path
           id="path4546"
           style="font-size:7.60961771px;font-variant:normal;font-stretch:normal;text-align:center;line-height:100%;writing-mode:lr-tb;text-anchor:middle;fill:#fcd674;font-family:Sans;-inkscape-font-specification:Sans"
           d="m 370.89984,550.21962 c -0.55239,0 -0.9351,0.0632 -1.14813,0.1895 -0.21303,0.12633 -0.31955,0.34184 -0.31955,0.64652 0,0.24276 0.0793,0.43597 0.2378,0.57964 0.16101,0.14119 0.379,0.21179 0.65396,0.21179 0.37899,0 0.68243,-0.13376 0.91033,-0.40129 0.23036,-0.27 0.34555,-0.62794 0.34555,-1.07382 l 0,-0.15234 -0.67996,0 m 1.36364,-0.28239 0,2.37429 -0.68368,0 0,-0.63165 c -0.15606,0.25266 -0.35051,0.43968 -0.58335,0.56106 -0.23285,0.1189 -0.51772,0.17835 -0.8546,0.17835 -0.42606,0 -0.76542,-0.1189 -1.01808,-0.3567 -0.25019,-0.24028 -0.37528,-0.56106 -0.37528,-0.96235 0,-0.46817 0.15605,-0.82116 0.46817,-1.05896 0.31459,-0.2378 0.78276,-0.3567 1.40451,-0.3567 l 0.95863,0 0,-0.0669 c 0,-0.31459 -0.10404,-0.55734 -0.31211,-0.72827 -0.2056,-0.17339 -0.49542,-0.26009 -0.86946,-0.26009 -0.2378,0 -0.46941,0.0285 -0.69483,0.0855 -0.22541,0.057 -0.44216,0.14244 -0.65023,0.25638 l 0,-0.63166 c 0.25018,-0.0966 0.49294,-0.16844 0.72826,-0.21551 0.23532,-0.0495 0.46446,-0.0743 0.6874,-0.0743 0.60193,10e-6 1.05152,0.15606 1.34877,0.46817 0.29725,0.31212 0.44587,0.78524 0.44588,1.41937"
           inkscape:connector-curvature="0" />
        <path
           id="path4548"
           style="font-size:7.60961771px;font-variant:normal;font-stretch:normal;text-align:center;line-height:100%;writing-mode:lr-tb;text-anchor:middle;fill:#fcd674;font-family:Sans;-inkscape-font-specification:Sans"
           d="m 374.35167,546.96844 0,1.18157 1.40822,0 0,0.53134 -1.40822,0 0,2.2591 c -1e-5,0.33937 0.0458,0.55735 0.13747,0.65396 0.0941,0.0966 0.28363,0.14491 0.5685,0.14491 l 0.70225,0 0,0.5722 -0.70225,0 c -0.52762,0 -0.89176,-0.0978 -1.0924,-0.29353 -0.20064,-0.19817 -0.30097,-0.55735 -0.30097,-1.07754 l 0,-2.2591 -0.50161,0 0,-0.53134 0.50161,0 0,-1.18157 0.6874,0"
           inkscape:connector-curvature="0" />
        <path
           id="path4550"
           style="font-size:7.60961771px;font-variant:normal;font-stretch:normal;text-align:center;line-height:100%;writing-mode:lr-tb;text-anchor:middle;fill:#fcd674;font-family:Sans;-inkscape-font-specification:Sans"
           d="m 376.66279,548.15001 0.68367,0 0,4.16151 -0.68367,0 0,-4.16151 m 0,-1.62001 0.68367,0 0,0.86574 -0.68367,0 0,-0.86574"
           inkscape:connector-curvature="0" />
        <path
           id="path4552"
           style="font-size:7.60961771px;font-variant:normal;font-stretch:normal;text-align:center;line-height:100%;writing-mode:lr-tb;text-anchor:middle;fill:#fcd674;font-family:Sans;-inkscape-font-specification:Sans"
           d="m 380.38585,548.62933 c -0.36661,0 -0.65643,0.14368 -0.86946,0.43101 -0.21303,0.28487 -0.31954,0.67625 -0.31954,1.17414 0,0.4979 0.10528,0.89052 0.31583,1.17786 0.21303,0.28487 0.50408,0.4273 0.87317,0.4273 0.36413,0 0.65271,-0.14367 0.86575,-0.43102 0.21302,-0.28734 0.31954,-0.67872 0.31954,-1.17414 0,-0.49293 -0.10652,-0.88308 -0.31954,-1.17042 -0.21304,-0.28982 -0.50162,-0.43473 -0.86575,-0.43473 m 0,-0.57964 c 0.5945,10e-6 1.06143,0.19322 1.4008,0.57964 0.33935,0.38643 0.50903,0.92148 0.50904,1.60515 -10e-6,0.68121 -0.16969,1.21626 -0.50904,1.60516 -0.33937,0.38642 -0.8063,0.57964 -1.4008,0.57964 -0.59698,0 -1.06515,-0.19322 -1.40451,-0.57964 -0.33688,-0.3889 -0.50532,-0.92395 -0.50532,-1.60516 0,-0.68367 0.16844,-1.21872 0.50532,-1.60515 0.33936,-0.38642 0.80753,-0.57963 1.40451,-0.57964"
           inkscape:connector-curvature="0" />
        <path
           id="path4554"
           style="font-size:7.60961771px;font-variant:normal;font-stretch:normal;text-align:center;line-height:100%;writing-mode:lr-tb;text-anchor:middle;fill:#fcd674;font-family:Sans;-inkscape-font-specification:Sans"
           d="m 386.8845,549.79976 0,2.51176 -0.68368,0 0,-2.48947 c 0,-0.39386 -0.0768,-0.68863 -0.23037,-0.88432 -0.15358,-0.19569 -0.38395,-0.29353 -0.6911,-0.29354 -0.36909,10e-6 -0.66015,0.11767 -0.87318,0.35299 -0.21303,0.23532 -0.31954,0.55611 -0.31954,0.96235 l 0,2.35199 -0.68739,0 0,-4.16151 0.68739,0 0,0.64652 c 0.16348,-0.25018 0.35546,-0.4372 0.57592,-0.56106 0.22294,-0.12385 0.47932,-0.18577 0.76914,-0.18578 0.47807,10e-6 0.83973,0.14863 1.08496,0.44588 0.24523,0.29477 0.36785,0.7295 0.36785,1.30419"
           inkscape:connector-curvature="0" />
        <path
           id="path4556"
           style="font-size:7.60961771px;font-variant:normal;font-stretch:normal;text-align:center;line-height:100%;writing-mode:lr-tb;text-anchor:middle;fill:#fcd674;font-family:Sans;-inkscape-font-specification:Sans"
           d="m 392.29075,548.62933 c -0.36662,0 -0.65644,0.14368 -0.86946,0.43101 -0.21303,0.28487 -0.31955,0.67625 -0.31955,1.17414 0,0.4979 0.10528,0.89052 0.31583,1.17786 0.21303,0.28487 0.50409,0.4273 0.87318,0.4273 0.36412,0 0.65271,-0.14367 0.86574,-0.43102 0.21302,-0.28734 0.31954,-0.67872 0.31954,-1.17414 0,-0.49293 -0.10652,-0.88308 -0.31954,-1.17042 -0.21303,-0.28982 -0.50162,-0.43473 -0.86574,-0.43473 m 0,-0.57964 c 0.59449,10e-6 1.06142,0.19322 1.40079,0.57964 0.33936,0.38643 0.50904,0.92148 0.50904,1.60515 0,0.68121 -0.16968,1.21626 -0.50904,1.60516 -0.33937,0.38642 -0.8063,0.57964 -1.40079,0.57964 -0.59699,0 -1.06515,-0.19322 -1.40451,-0.57964 -0.33689,-0.3889 -0.50533,-0.92395 -0.50533,-1.60516 0,-0.68367 0.16844,-1.21872 0.50533,-1.60515 0.33936,-0.38642 0.80752,-0.57963 1.40451,-0.57964"
           inkscape:connector-curvature="0" />
        <path
           id="path4558"
           style="font-size:7.60961771px;font-variant:normal;font-stretch:normal;text-align:center;line-height:100%;writing-mode:lr-tb;text-anchor:middle;fill:#fcd674;font-family:Sans;-inkscape-font-specification:Sans"
           d="m 397.43689,546.53 0,0.56849 -0.65395,0 c -0.24523,0 -0.41615,0.0496 -0.51275,0.14862 -0.0941,0.0991 -0.1412,0.27744 -0.1412,0.53506 l 0,0.36784 1.12584,0 0,0.53134 -1.12584,0 0,3.63017 -0.68739,0 0,-3.63017 -0.65395,0 0,-0.53134 0.65395,0 0,-0.28982 c 0,-0.46321 0.10775,-0.80009 0.32326,-1.01065 0.2155,-0.21302 0.55734,-0.31954 1.02551,-0.31954 l 0.64652,0"
           inkscape:connector-curvature="0" />
        <path
           id="path4560"
           style="font-size:7.60961771px;font-variant:normal;font-stretch:normal;text-align:center;line-height:100%;writing-mode:lr-tb;text-anchor:middle;fill:#fcd674;font-family:Sans;-inkscape-font-specification:Sans"
           d="m 402.31924,550.21962 c -0.55239,0 -0.9351,0.0632 -1.14813,0.1895 -0.21303,0.12633 -0.31954,0.34184 -0.31954,0.64652 0,0.24276 0.0793,0.43597 0.2378,0.57964 0.16101,0.14119 0.37899,0.21179 0.65395,0.21179 0.37899,0 0.68243,-0.13376 0.91033,-0.40129 0.23037,-0.27 0.34555,-0.62794 0.34555,-1.07382 l 0,-0.15234 -0.67996,0 m 1.36364,-0.28239 0,2.37429 -0.68368,0 0,-0.63165 c -0.15606,0.25266 -0.35051,0.43968 -0.58335,0.56106 -0.23285,0.1189 -0.51772,0.17835 -0.8546,0.17835 -0.42606,0 -0.76542,-0.1189 -1.01808,-0.3567 -0.25019,-0.24028 -0.37528,-0.56106 -0.37528,-0.96235 0,-0.46817 0.15606,-0.82116 0.46817,-1.05896 0.31459,-0.2378 0.78276,-0.3567 1.40451,-0.3567 l 0.95863,0 0,-0.0669 c 0,-0.31459 -0.10404,-0.55734 -0.31211,-0.72827 -0.2056,-0.17339 -0.49542,-0.26009 -0.86946,-0.26009 -0.2378,0 -0.46941,0.0285 -0.69482,0.0855 -0.22542,0.057 -0.44216,0.14244 -0.65024,0.25638 l 0,-0.63166 c 0.25019,-0.0966 0.49294,-0.16844 0.72827,-0.21551 0.23532,-0.0495 0.46445,-0.0743 0.68739,-0.0743 0.60193,10e-6 1.05152,0.15606 1.34877,0.46817 0.29725,0.31212 0.44588,0.78524 0.44588,1.41937"
           inkscape:connector-curvature="0" />
        <path
           id="path4562"
           style="font-size:7.60961771px;font-variant:normal;font-stretch:normal;text-align:center;line-height:100%;writing-mode:lr-tb;text-anchor:middle;fill:#fcd674;font-family:Sans;-inkscape-font-specification:Sans"
           d="m 407.50626,548.7891 c -0.0768,-0.0446 -0.16101,-0.0768 -0.25266,-0.0966 -0.0892,-0.0223 -0.18826,-0.0334 -0.29725,-0.0334 -0.38643,0 -0.68368,0.12633 -0.89175,0.37899 -0.2056,0.25019 -0.3084,0.61061 -0.3084,1.08125 l 0,2.19222 -0.68739,0 0,-4.16151 0.68739,0 0,0.64652 c 0.14367,-0.25266 0.33069,-0.43968 0.56106,-0.56106 0.23037,-0.12385 0.51028,-0.18577 0.83973,-0.18578 0.0471,1e-5 0.0991,0.004 0.15606,0.0111 0.057,0.005 0.12014,0.0136 0.1895,0.026 l 0.004,0.70225"
           inkscape:connector-curvature="0" />
        <path
           id="path4564"
           style="font-size:7.60961771px;font-variant:normal;font-stretch:normal;text-align:center;line-height:100%;writing-mode:lr-tb;text-anchor:middle;fill:#fcd674;font-family:Sans;-inkscape-font-specification:Sans"
           d="m 410.83547,550.18247 c 0,-0.49542 -0.1028,-0.87937 -0.30839,-1.15185 -0.20313,-0.27248 -0.48923,-0.40872 -0.85832,-0.40872 -0.36661,0 -0.65271,0.13624 -0.85831,0.40872 -0.20312,0.27248 -0.30468,0.65643 -0.30468,1.15185 0,0.49294 0.10156,0.87565 0.30468,1.14813 0.2056,0.27248 0.4917,0.40872 0.85831,0.40872 0.36909,0 0.65519,-0.13624 0.85832,-0.40872 0.20559,-0.27248 0.30839,-0.65519 0.30839,-1.14813 m 0.68368,1.61258 c 0,0.70845 -0.1573,1.23483 -0.47188,1.57914 -0.3146,0.3468 -0.79639,0.52019 -1.44539,0.52019 -0.24028,0 -0.46693,-0.0186 -0.67996,-0.0557 -0.21303,-0.0347 -0.41987,-0.0892 -0.62051,-0.16349 l 0,-0.6651 c 0.20064,0.10899 0.39881,0.1895 0.5945,0.24152 0.19569,0.052 0.3951,0.078 0.59822,0.078 0.44835,0 0.784,-0.11767 1.00694,-0.35299 0.22293,-0.23284 0.3344,-0.58583 0.3344,-1.05895 l 0,-0.33813 c -0.14119,0.24524 -0.32202,0.42854 -0.54248,0.54992 -0.22046,0.12137 -0.48427,0.18206 -0.79143,0.18206 -0.51028,0 -0.92148,-0.19445 -1.23359,-0.58335 -0.31211,-0.3889 -0.46817,-0.90414 -0.46817,-1.5457 0,-0.64405 0.15606,-1.16052 0.46817,-1.54942 0.31211,-0.3889 0.72331,-0.58335 1.23359,-0.58336 0.30716,10e-6 0.57097,0.0607 0.79143,0.18207 0.22046,0.12138 0.40129,0.30468 0.54248,0.54991 l 0,-0.63166 0.68368,0 0,3.64504"
           inkscape:connector-curvature="0" />
        <path
           id="path4566"
           style="font-size:7.60961771px;font-variant:normal;font-stretch:normal;text-align:center;line-height:100%;writing-mode:lr-tb;text-anchor:middle;fill:#fcd674;font-family:Sans;-inkscape-font-specification:Sans"
           d="m 412.85678,550.66921 0,-2.5192 0.68367,0 0,2.49319 c 0,0.39386 0.0768,0.68987 0.23037,0.88804 0.15358,0.19569 0.38395,0.29354 0.69111,0.29354 0.36908,0 0.66014,-0.11767 0.87317,-0.35299 0.21551,-0.23532 0.32326,-0.5561 0.32326,-0.96235 l 0,-2.35943 0.68368,0 0,4.16151 -0.68368,0 0,-0.63909 c -0.16596,0.25267 -0.35918,0.44093 -0.57963,0.56478 -0.21799,0.12138 -0.47189,0.18207 -0.76171,0.18207 -0.47808,0 -0.84097,-0.14863 -1.08868,-0.44588 -0.24771,-0.29725 -0.37156,-0.73198 -0.37156,-1.30419 m 1.72034,-2.61952 0,0"
           inkscape:connector-curvature="0" />
        <path
           id="path4568"
           style="font-size:7.60961771px;font-variant:normal;font-stretch:normal;text-align:center;line-height:100%;writing-mode:lr-tb;text-anchor:middle;fill:#fcd674;font-family:Sans;-inkscape-font-specification:Sans"
           d="m 420.99773,548.94887 c 0.17091,-0.30715 0.37527,-0.5338 0.61308,-0.67996 0.23779,-0.14614 0.51771,-0.21921 0.83973,-0.21922 0.43349,10e-6 0.76789,0.15235 1.00322,0.45702 0.23532,0.30221 0.35298,0.73323 0.35299,1.29305 l 0,2.51176 -0.68739,0 0,-2.48947 c -10e-6,-0.39881 -0.0706,-0.69482 -0.2118,-0.88804 -0.1412,-0.19321 -0.3567,-0.28981 -0.64652,-0.28982 -0.35422,10e-6 -0.63413,0.11767 -0.83973,0.35299 -0.2056,0.23532 -0.3084,0.55611 -0.3084,0.96235 l 0,2.35199 -0.68739,0 0,-2.48947 c 0,-0.40129 -0.0706,-0.6973 -0.21179,-0.88804 -0.1412,-0.19321 -0.35918,-0.28981 -0.65395,-0.28982 -0.34927,10e-6 -0.62671,0.11891 -0.8323,0.3567 -0.2056,0.23533 -0.3084,0.55487 -0.3084,0.95864 l 0,2.35199 -0.68739,0 0,-4.16151 0.68739,0 0,0.64652 c 0.15605,-0.25513 0.34307,-0.44339 0.56106,-0.56477 0.21798,-0.12138 0.47684,-0.18206 0.77657,-0.18207 0.3022,10e-6 0.55858,0.0768 0.76913,0.23037 0.21303,0.15358 0.37032,0.37652 0.47189,0.66881"
           inkscape:connector-curvature="0" />
        <path
           id="path4570"
           style="font-size:7.60961771px;font-variant:normal;font-stretch:normal;text-align:center;line-height:100%;writing-mode:lr-tb;text-anchor:middle;fill:#fcd674;font-family:Sans;-inkscape-font-specification:Sans"
           d="m 428.73368,550.05985 0,0.33441 -3.14343,0 c 0.0297,0.47064 0.17092,0.82982 0.42358,1.07753 0.25514,0.24523 0.60937,0.36785 1.06268,0.36785 0.26256,0 0.51647,-0.0322 0.7617,-0.0966 0.24771,-0.0644 0.49294,-0.16101 0.7357,-0.28982 l 0,0.64652 c -0.24524,0.10404 -0.49666,0.18331 -0.75428,0.2378 -0.25762,0.0545 -0.51895,0.0817 -0.784,0.0817 -0.66386,0 -1.19024,-0.19322 -1.57914,-0.57964 -0.38643,-0.38643 -0.57964,-0.90909 -0.57964,-1.568 0,-0.6812 0.1833,-1.2212 0.54991,-1.62002 0.36909,-0.40128 0.86575,-0.60192 1.48997,-0.60193 0.55982,10e-6 1.00198,0.18083 1.32648,0.54248 0.32698,0.35919 0.49046,0.84841 0.49047,1.46768 m -0.68368,-0.2006 c -0.005,-0.37404 -0.11023,-0.67253 -0.31583,-0.89547 -0.20312,-0.22294 -0.47312,-0.33441 -0.81001,-0.33441 -0.38147,0 -0.68739,0.10776 -0.91776,0.32326 -0.22789,0.21551 -0.35918,0.51895 -0.39385,0.91033 l 2.43745,-0.004"
           inkscape:connector-curvature="0" />
        <path
           id="path4572"
           style="font-size:7.60961771px;font-variant:normal;font-stretch:normal;text-align:center;line-height:100%;writing-mode:lr-tb;text-anchor:middle;fill:#fcd674;font-family:Sans;-inkscape-font-specification:Sans"
           d="m 433.31506,549.79976 0,2.51176 -0.68368,0 0,-2.48947 c 0,-0.39386 -0.0768,-0.68863 -0.23037,-0.88432 -0.15358,-0.19569 -0.38395,-0.29353 -0.69111,-0.29354 -0.36908,10e-6 -0.66014,0.11767 -0.87317,0.35299 -0.21303,0.23532 -0.31955,0.55611 -0.31954,0.96235 l 0,2.35199 -0.6874,0 0,-4.16151 0.6874,0 0,0.64652 c 0.16348,-0.25018 0.35546,-0.4372 0.57592,-0.56106 0.22293,-0.12385 0.47931,-0.18577 0.76914,-0.18578 0.47807,10e-6 0.83972,0.14863 1.08496,0.44588 0.24523,0.29477 0.36784,0.7295 0.36785,1.30419"
           inkscape:connector-curvature="0" />
        <path
           id="path4574"
           style="font-size:7.60961771px;font-variant:normal;font-stretch:normal;text-align:center;line-height:100%;writing-mode:lr-tb;text-anchor:middle;fill:#fcd674;font-family:Sans;-inkscape-font-specification:Sans"
           d="m 435.36237,546.96844 0,1.18157 1.40823,0 0,0.53134 -1.40823,0 0,2.2591 c 0,0.33937 0.0458,0.55735 0.13748,0.65396 0.0941,0.0966 0.28362,0.14491 0.56849,0.14491 l 0.70226,0 0,0.5722 -0.70226,0 c -0.52762,0 -0.89175,-0.0978 -1.0924,-0.29353 -0.20064,-0.19817 -0.30096,-0.55735 -0.30096,-1.07754 l 0,-2.2591 -0.50161,0 0,-0.53134 0.50161,0 0,-1.18157 0.68739,0"
           inkscape:connector-curvature="0" />
      </g>
      <g
         inkscape:export-ydpi="100.3149"
         inkscape:export-xdpi="100.3149"
         inkscape:export-filename="/home/john/Desktop/ova2/res/img/logo-small.png"
         transform="matrix(0.778639,0,0,0.778639,103.10146,-135.6938)"
         id="g3023">
        <path
           sodipodi:type="arc"
           style="fill:#fcc84c;fill-opacity:1;stroke:none"
           id="path3054"
           sodipodi:cx="292.20724"
           sodipodi:cy="858.3139"
           sodipodi:rx="10.213069"
           sodipodi:ry="10.213069"
           d="m 302.42031,858.3139 c 0,5.64053 -4.57254,10.21307 -10.21307,10.21307 -5.64052,0 -10.21306,-4.57254 -10.21306,-10.21307 0,-5.64052 4.57254,-10.21307 10.21306,-10.21307 5.64053,0 10.21307,4.57255 10.21307,10.21307 z"
           transform="matrix(1.1111111,0,0,1.1111111,-24.975983,-96.860453)" />
        <path
           sodipodi:type="arc"
           style="fill:#ffffff;fill-opacity:1;stroke:none"
           id="path3019"
           sodipodi:cx="303.61301"
           sodipodi:cy="849.46136"
           sodipodi:rx="3.269192"
           sodipodi:ry="2.1091561"
           d="m 306.8822,849.46136 c 0,1.16486 -1.46367,2.10916 -3.26919,2.10916 -1.80553,0 -3.2692,-0.9443 -3.2692,-2.10916 0,-1.16485 1.46367,-2.10915 3.2692,-2.10915 1.80552,0 3.26919,0.9443 3.26919,2.10915 z"
           transform="matrix(0.67017889,0.23345727,-0.23345727,0.67017889,297.29087,208.67729)" />
        <path
           sodipodi:type="arc"
           style="fill:#ffffff;fill-opacity:1;stroke:none"
           id="path3021"
           sodipodi:cx="306.77676"
           sodipodi:cy="851.8869"
           sodipodi:rx="1.1600358"
           sodipodi:ry="1.1600358"
           d="m 307.9368,851.8869 c 0,0.64067 -0.51937,1.16004 -1.16004,1.16004 -0.64067,0 -1.16003,-0.51937 -1.16003,-1.16004 0,-0.64067 0.51936,-1.16003 1.16003,-1.16003 0.64067,0 1.16004,0.51936 1.16004,1.16003 z"
           transform="translate(-0.63274682,-0.94542196)" />
      </g>
    </g>
    <g
       style="font-size:72px;font-style:normal;font-variant:normal;font-weight:normal;font-stretch:normal;line-height:125%;letter-spacing:0px;word-spacing:0px;fill:#ffffff;fill-opacity:1;stroke:none;font-family:Droid Sans;-inkscape-font-specification:Droid Sans"
       id="text3024">
      <path
         d="m 405.59766,513.26257 -1.83106,-5.36132 0.91797,0 0.97168,2.98339 c 0.0358,0.10743 0.0781,0.24577 0.12695,0.41504 0.0488,0.16928 0.0977,0.3418 0.14649,0.51758 0.0488,0.17578 0.0928,0.3418 0.13183,0.49805 0.0423,0.15625 0.07,0.27506 0.083,0.35644 l 0.0342,0 c 0.0163,-0.0814 0.0439,-0.20019 0.083,-0.35644 0.0391,-0.15625 0.083,-0.32227 0.13183,-0.49805 0.0488,-0.17578 0.0977,-0.3483 0.14649,-0.51758 0.0488,-0.16927 0.0911,-0.30761 0.12695,-0.41504 l 0.97168,-2.98339 0.91797,0 -1.83105,5.36132 -1.12793,0"
         style="font-size:10px;fill:#ffffff"
         id="path3155" />
      <path
         d="m 411.52051,513.36023 c -0.35808,0 -0.68523,-0.0602 -0.98145,-0.18066 -0.29622,-0.12045 -0.55176,-0.29623 -0.7666,-0.52735 -0.21159,-0.23112 -0.37598,-0.51758 -0.49316,-0.85937 -0.11719,-0.3418 -0.17578,-0.73242 -0.17578,-1.17188 0,-0.4427 0.0537,-0.83821 0.16113,-1.18652 0.10742,-0.3483 0.25879,-0.6429 0.4541,-0.88379 0.19531,-0.24414 0.42806,-0.42968 0.69824,-0.55664 0.27344,-0.12695 0.57454,-0.19043 0.90332,-0.19043 0.32227,0 0.61198,0.0586 0.86914,0.17578 0.25716,0.11394 0.47526,0.2767 0.6543,0.48828 0.17903,0.20834 0.31575,0.46062 0.41016,0.75684 0.0976,0.29297 0.14648,0.61849 0.14648,0.97656 l 0,0.55176 -3.37891,0 c 0.0163,0.62825 0.14811,1.09049 0.39551,1.38672 0.25065,0.29622 0.62174,0.44433 1.11328,0.44433 0.16602,0 0.31901,-0.008 0.45899,-0.0244 0.14322,-0.0163 0.27994,-0.0391 0.41015,-0.0684 0.13346,-0.0326 0.26204,-0.0716 0.38575,-0.11719 0.12369,-0.0488 0.24902,-0.10254 0.37597,-0.16113 l 0,0.79101 c -0.13021,0.0619 -0.25879,0.11556 -0.38574,0.16114 -0.1237,0.0456 -0.25228,0.083 -0.38574,0.1123 -0.13021,0.0293 -0.26693,0.0505 -0.41016,0.0635 -0.13998,0.013 -0.29297,0.0195 -0.45898,0.0195 m -0.21973,-4.81934 c -0.37109,1e-5 -0.66569,0.12696 -0.88379,0.38086 -0.21484,0.25391 -0.34017,0.62338 -0.37597,1.1084 l 2.40234,0 c 0,-0.22135 -0.0228,-0.42317 -0.0684,-0.60547 -0.0423,-0.18554 -0.11068,-0.34342 -0.20508,-0.47363 -0.0911,-0.1302 -0.20833,-0.23112 -0.35156,-0.30273 -0.14323,-0.0716 -0.31576,-0.10742 -0.51758,-0.10743"
         style="font-size:10px;fill:#ffffff"
         id="path3157" />
      <path
         d="m 417.07227,507.80359 c 0.0944,0 0.20019,0.005 0.31738,0.0147 0.11718,0.007 0.21809,0.0179 0.30273,0.0342 l -0.11718,0.82031 c -0.0911,-0.0163 -0.18556,-0.0293 -0.28321,-0.0391 -0.0944,-0.013 -0.18392,-0.0195 -0.26855,-0.0195 -0.20508,0 -0.39226,0.0423 -0.56153,0.12695 -0.16927,0.0814 -0.31575,0.2002 -0.43945,0.35644 -0.12044,0.153 -0.21484,0.33855 -0.2832,0.55664 -0.0651,0.21485 -0.0977,0.45411 -0.0977,0.71778 l 0,2.89062 -0.88867,0 0,-5.36132 0.72266,0 0.10742,0.98144 0.0391,0 c 0.0814,-0.13997 0.16764,-0.27506 0.25879,-0.40527 0.0944,-0.13021 0.19856,-0.24414 0.3125,-0.3418 0.11718,-0.10091 0.24739,-0.18066 0.39062,-0.23926 0.14323,-0.0618 0.30599,-0.0928 0.48829,-0.0928"
         style="font-size:10px;fill:#ffffff"
         id="path3159" />
      <path
         d="m 421.94531,511.79285 c 0,0.26041 -0.0472,0.48828 -0.1416,0.68359 -0.0944,0.19531 -0.23112,0.3597 -0.41016,0.49316 -0.17578,0.13021 -0.389,0.22787 -0.63964,0.29297 -0.25066,0.0651 -0.53223,0.0977 -0.84473,0.0977 -0.35482,0 -0.65918,-0.0293 -0.91309,-0.0879 -0.2539,-0.0553 -0.47688,-0.13835 -0.66894,-0.24902 l 0,-0.81055 c 0.10091,0.0521 0.21321,0.10417 0.33691,0.15625 0.1237,0.0488 0.25391,0.0928 0.39063,0.13183 0.13671,0.0391 0.27669,0.0716 0.41992,0.0977 0.14648,0.0228 0.29134,0.0342 0.43457,0.0342 0.21159,0 0.39062,-0.0179 0.53711,-0.0537 0.14974,-0.0358 0.27018,-0.0863 0.36133,-0.15137 0.0944,-0.0684 0.16275,-0.14974 0.20508,-0.24414 0.0423,-0.0977 0.0635,-0.20508 0.0635,-0.32226 0,-0.10091 -0.0163,-0.19206 -0.0488,-0.27344 -0.0325,-0.0814 -0.0928,-0.16113 -0.18066,-0.23926 -0.0846,-0.0814 -0.20183,-0.16276 -0.35156,-0.24414 -0.14974,-0.0814 -0.3418,-0.17252 -0.57617,-0.27344 -0.23438,-0.10091 -0.44597,-0.20019 -0.63477,-0.29785 -0.18555,-0.0976 -0.34343,-0.2067 -0.47363,-0.32715 -0.13021,-0.12044 -0.23112,-0.25878 -0.30274,-0.41504 -0.0684,-0.1595 -0.10254,-0.3483 -0.10254,-0.5664 0,-0.22786 0.044,-0.42969 0.13184,-0.60547 0.0911,-0.17903 0.2181,-0.32877 0.38086,-0.44922 0.16276,-0.12044 0.35807,-0.21158 0.58594,-0.27344 0.22786,-0.0618 0.48176,-0.0928 0.76171,-0.0928 0.31576,0 0.60384,0.0342 0.86426,0.10254 0.26367,0.0684 0.51269,0.15788 0.74707,0.26855 l -0.30761,0.71778 c -0.2116,-0.0944 -0.42969,-0.17578 -0.6543,-0.24414 -0.22136,-0.0716 -0.44759,-0.10742 -0.67871,-0.10743 -0.33204,1e-5 -0.5778,0.0554 -0.73731,0.16602 -0.1595,0.10743 -0.23926,0.26205 -0.23925,0.46387 -10e-6,0.11393 0.0179,0.21322 0.0537,0.29785 0.0391,0.0846 0.10416,0.16439 0.19531,0.23926 0.0911,0.0749 0.21321,0.15137 0.36621,0.22949 0.15299,0.0749 0.34342,0.15951 0.57129,0.2539 0.23437,0.0977 0.4427,0.19532 0.625,0.29297 0.18554,0.0977 0.34342,0.20834 0.47363,0.33203 0.13021,0.12045 0.22949,0.2588 0.29785,0.41504 0.0684,0.15626 0.10254,0.34343 0.10254,0.56153"
         style="font-size:10px;fill:#ffffff"
         id="path3161" />
      <path
         d="m 424.1377,513.26257 -0.88868,0 0,-5.36132 0.88868,0 0,5.36132 m -0.95704,-6.81152 c 0,-0.19531 0.0488,-0.33691 0.14649,-0.4248 0.10091,-0.0879 0.22461,-0.13183 0.37109,-0.13184 0.0716,1e-5 0.13835,0.0114 0.2002,0.0342 0.0651,0.0195 0.12044,0.0521 0.16601,0.0977 0.0488,0.0456 0.0863,0.10417 0.11231,0.17578 0.0293,0.0684 0.0439,0.15137 0.0439,0.24902 0,0.18881 -0.0521,0.33041 -0.15625,0.4248 -0.10091,0.0912 -0.22298,0.13673 -0.36621,0.13672 -0.14648,1e-5 -0.27018,-0.0456 -0.37109,-0.13672 -0.0977,-0.0911 -0.14649,-0.23274 -0.14649,-0.4248"
         style="font-size:10px;fill:#ffffff"
         id="path3163" />
      <path
         d="m 430.2168,510.57214 c -10e-6,0.44597 -0.0553,0.8431 -0.16602,1.19141 -0.10743,0.34505 -0.26368,0.63639 -0.46875,0.87402 -0.20183,0.23438 -0.44759,0.41341 -0.7373,0.53711 -0.28972,0.1237 -0.61524,0.18555 -0.97657,0.18555 -0.33528,0 -0.64453,-0.0619 -0.92773,-0.18555 -0.28321,-0.1237 -0.52897,-0.30273 -0.73731,-0.53711 -0.20507,-0.23763 -0.36621,-0.52897 -0.48339,-0.87402 -0.11394,-0.34831 -0.1709,-0.74544 -0.1709,-1.19141 0,-0.4427 0.0537,-0.83495 0.16113,-1.17675 0.11068,-0.34505 0.26693,-0.63477 0.46875,-0.86914 0.20182,-0.23763 0.44759,-0.41667 0.73731,-0.53711 0.29296,-0.1237 0.62011,-0.18555 0.98144,-0.18555 0.33528,0 0.64453,0.0618 0.92774,0.18555 0.28319,0.12044 0.52733,0.29948 0.73242,0.53711 0.20833,0.23437 0.36946,0.52409 0.4834,0.86914 0.11718,0.3418 0.17577,0.73405 0.17578,1.17675 m -3.75,0 c 0,0.68034 0.11067,1.19304 0.33203,1.53809 0.22461,0.3418 0.58756,0.5127 1.08887,0.51269 0.50129,10e-6 0.86099,-0.17089 1.0791,-0.51269 0.22135,-0.34505 0.33202,-0.85775 0.33203,-1.53809 -1e-5,-0.68033 -0.11231,-1.18814 -0.33692,-1.52343 -0.22135,-0.33854 -0.58268,-0.50781 -1.08398,-0.50782 -0.5013,1e-5 -0.86263,0.16928 -1.08398,0.50782 -0.21811,0.33529 -0.32715,0.8431 -0.32715,1.52343"
         style="font-size:10px;fill:#ffffff"
         id="path3165" />
      <path
         d="m 434.97754,513.26257 0,-3.45215 c -10e-6,-0.42317 -0.0863,-0.74055 -0.25879,-0.95214 -0.16927,-0.21159 -0.4362,-0.31738 -0.80078,-0.31739 -0.26368,1e-5 -0.48503,0.0423 -0.66406,0.12696 -0.17904,0.0846 -0.3239,0.20996 -0.43457,0.37597 -0.10743,0.16602 -0.18555,0.36947 -0.23438,0.61035 -0.0456,0.24089 -0.0684,0.51759 -0.0684,0.83008 l 0,2.77832 -0.88867,0 0,-5.36132 0.72266,0 0.12695,0.72265 0.0488,0 c 0.0814,-0.13997 0.1774,-0.26041 0.28808,-0.36133 0.11393,-0.10416 0.23763,-0.19042 0.3711,-0.25879 0.13346,-0.0684 0.27506,-0.11881 0.4248,-0.15136 0.14974,-0.0326 0.30273,-0.0488 0.45899,-0.0488 0.5957,0 1.04329,0.15625 1.34277,0.46875 0.30273,0.30925 0.4541,0.80567 0.4541,1.48926 l 0,3.50097 -0.88867,0"
         style="font-size:10px;fill:#ffffff"
         id="path3167" />
      <path
         d="m 444.19629,513.26257 -4.45313,0 0,-0.76172 1.70899,-1.86035 c 0.24414,-0.26367 0.46224,-0.50455 0.6543,-0.72265 0.19205,-0.2181 0.35481,-0.43131 0.48828,-0.63965 0.13671,-0.20833 0.24088,-0.41666 0.3125,-0.625 0.0716,-0.21159 0.10741,-0.44108 0.10742,-0.68848 -1e-5,-0.19205 -0.0277,-0.36132 -0.083,-0.50781 -0.0553,-0.14648 -0.13509,-0.27018 -0.23926,-0.37109 -0.10091,-0.10416 -0.22135,-0.18229 -0.36133,-0.23438 -0.13997,-0.0521 -0.29622,-0.0781 -0.46875,-0.0781 -0.30924,0 -0.58919,0.0635 -0.83984,0.19043 -0.2474,0.1237 -0.4834,0.2832 -0.70801,0.47851 l -0.49804,-0.58105 c 0.1302,-0.11718 0.27018,-0.22623 0.41992,-0.32715 0.14974,-0.10416 0.31087,-0.19368 0.4834,-0.26856 0.17252,-0.0749 0.35481,-0.13345 0.54687,-0.17578 0.19206,-0.0456 0.39388,-0.0684 0.60547,-0.0684 0.3125,10e-6 0.59407,0.0439 0.84473,0.13184 0.2539,0.0879 0.46874,0.21485 0.64453,0.38086 0.17578,0.16276 0.31087,0.36296 0.40527,0.60058 0.0977,0.23438 0.14648,0.49968 0.14649,0.7959 -1e-5,0.2767 -0.0439,0.54037 -0.13184,0.79102 -0.0846,0.25065 -0.20345,0.49805 -0.35645,0.74219 -0.14974,0.24088 -0.3304,0.4834 -0.54199,0.72753 -0.20833,0.24415 -0.43457,0.49805 -0.67871,0.76172 l -1.37207,1.45996 0,0.0391 3.36426,0 0,0.81054"
         style="font-size:10px;fill:#ffffff"
         id="path3169" />
      <path
         d="m 445.5,512.72058 c 0,-0.1237 0.0163,-0.22786 0.0488,-0.3125 0.0326,-0.0879 0.0765,-0.15788 0.13183,-0.20996 0.0553,-0.0553 0.12045,-0.0944 0.19532,-0.11719 0.0749,-0.026 0.15625,-0.0391 0.24414,-0.0391 0.0846,0 0.16438,0.013 0.23925,0.0391 0.0781,0.0228 0.14486,0.0619 0.2002,0.11719 0.0553,0.0521 0.0993,0.12207 0.13184,0.20996 0.0325,0.0846 0.0488,0.1888 0.0488,0.3125 0,0.12044 -0.0163,0.22461 -0.0488,0.3125 -0.0326,0.0846 -0.0765,0.15462 -0.13184,0.20996 -0.0553,0.0553 -0.12207,0.096 -0.2002,0.12207 -0.0749,0.026 -0.15462,0.0391 -0.23925,0.0391 -0.0879,0 -0.16927,-0.013 -0.24414,-0.0391 -0.0749,-0.026 -0.13998,-0.0667 -0.19532,-0.12207 -0.0553,-0.0553 -0.0993,-0.12532 -0.13183,-0.20996 -0.0326,-0.0879 -0.0488,-0.19206 -0.0488,-0.3125"
         style="font-size:10px;fill:#ffffff"
         id="path3171" />
      <path
         d="m 450.92969,513.26257 -0.85938,0 0,-4.458 c 0,-0.13997 0,-0.28971 0,-0.44922 0.003,-0.1595 0.007,-0.31738 0.01,-0.47364 0.007,-0.1595 0.0114,-0.31086 0.0147,-0.4541 0.006,-0.14648 0.0114,-0.27506 0.0146,-0.38574 -0.0553,0.0586 -0.10416,0.10906 -0.14648,0.15137 -0.0423,0.0423 -0.0863,0.083 -0.13184,0.12207 -0.0423,0.0391 -0.0879,0.0814 -0.13671,0.12695 -0.0488,0.0423 -0.10743,0.0928 -0.17579,0.15137 l -0.72265,0.59082 -0.46875,-0.60059 1.87012,-1.45996 0.73242,0 0,7.13867"
         style="font-size:10px;fill:#ffffff"
         id="path3173" />
    </g>
  </g>
</svg>
