<?xml version="1.0" encoding="UTF-8" standalone="no"?>
<!-- Created with Inkscape (http://www.inkscape.org/) -->

<svg
   xmlns:dc="http://purl.org/dc/elements/1.1/"
   xmlns:cc="http://creativecommons.org/ns#"
   xmlns:rdf="http://www.w3.org/1999/02/22-rdf-syntax-ns#"
   xmlns:svg="http://www.w3.org/2000/svg"
   xmlns="http://www.w3.org/2000/svg"
   xmlns:sodipodi="http://sodipodi.sourceforge.net/DTD/sodipodi-0.dtd"
   xmlns:inkscape="http://www.inkscape.org/namespaces/inkscape"
   width="26.398306mm"
   height="8.1999998mm"
   viewBox="0 0 26.398306 8.1999998"
   id="svg4584"
   version="1.1"
   inkscape:version="0.91+devel+osxmenu r12922"
   sodipodi:docname="logo-text.svg"
   inkscape:export-filename="/Users/john/Dropbox/ARG/OVA3/res/img/logo.png"
   inkscape:export-xdpi="538.52002"
   inkscape:export-ydpi="538.52002">
  <defs
     id="defs4586" />
  <sodipodi:namedview
     id="base"
     pagecolor="#ffffff"
     bordercolor="#666666"
     borderopacity="1.0"
     inkscape:pageopacity="0.0"
     inkscape:pageshadow="2"
     inkscape:zoom="6.65"
     inkscape:cx="88.5"
     inkscape:cy="6"
     inkscape:document-units="mm"
     inkscape:current-layer="layer1"
     showgrid="false"
     fit-margin-top="0.1"
     fit-margin-left="0.1"
     fit-margin-bottom="0.1"
     fit-margin-right="0.1"
     inkscape:window-width="1280"
     inkscape:window-height="713"
     inkscape:window-x="0"
     inkscape:window-y="23"
     inkscape:window-maximized="0" />
  <metadata
     id="metadata4589">
    <rdf:RDF>
      <cc:Work
         rdf:about="">
        <dc:format>image/svg+xml</dc:format>
        <dc:type
           rdf:resource="http://purl.org/dc/dcmitype/StillImage" />
        <dc:title></dc:title>
      </cc:Work>
    </rdf:RDF>
  </metadata>
  <g
     inkscape:label="Layer 1"
     inkscape:groupmode="layer"
     id="layer1"
     transform="translate(-38.199472,-140.62453)">
    <g
       id="g5362"
       transform="matrix(0.78875747,0,0,0.78875747,11.012167,28.006759)"
       style="fill:#f9f9f9;fill-opacity:1;opacity:0.4">
      <path
         id="path5348"
         transform="scale(0.26458333)"
         d="m 163.00195,540.11523 c -4.39896,0 -8.27246,2.3632 -10.5332,5.95118 -1.70793,-1.26868 -3.88948,-2.02539 -6.26758,-2.02539 -5.47352,0 -9.91601,4.02854 -9.91601,9.00195 0,0.80345 0.12451,1.57903 0.34179,2.32031 -3.5187,2.17142 -5.87304,6.13043 -5.87304,10.66016 0,6.86275 5.40792,12.42578 12.07617,12.42578 l 31.88867,0 c 4.00097,0 7.81836,-6.09144 7.81836,-12.14844 0,-5.71899 -3.39692,-9.89635 -7.14453,-10.3457 0.15394,-0.82874 0.23242,-1.68637 0.23242,-2.5625 0,-7.33508 -5.64915,-13.27735 -12.62305,-13.27735 z m -6.35547,13.14649 a 9.8485646,9.8485646 0 0 1 9.84766,9.84766 9.8485646,9.8485646 0 0 1 -9.84766,9.8496 9.8485646,9.8485646 0 0 1 -9.8496,-9.8496 9.8485646,9.8485646 0 0 1 9.8496,-9.84766 z"
         style="fill:#f9f9f9;fill-opacity:1;stroke:none;stroke-width:0.99999994"
         inkscape:connector-curvature="0" />
      <ellipse
         style="fill:#f9f9f9;fill-opacity:1;stroke:none;stroke-width:0.16296062"
         id="ellipse5354"
         transform="rotate(19.205818)"
         cx="88.146042"
         cy="125.12615"
         rx="0.53274959"
         ry="0.34370941" />
      <circle
         style="fill:#f9f9f9;fill-opacity:1;stroke:none;stroke-width:0.22962633"
         id="circle5356"
         cx="42.925842"
         cy="147.63924"
         r="0.26637477" />
    </g>
    <text
       xml:space="preserve"
       style="font-style:normal;font-variant:normal;font-weight:normal;font-stretch:normal;font-size:9.40740681px;line-height:125%;font-family:'Open Sans';-inkscape-font-specification:'Open Sans';letter-spacing:0px;word-spacing:0px;fill:#f9f9f9;fill-opacity:1;stroke:none;stroke-width:0.23518518px;stroke-linecap:butt;stroke-linejoin:miter;stroke-opacity:1"
       x="50.225491"
       y="147.74237"
       id="text5304"
       sodipodi:linespacing="125%"><tspan
         sodipodi:role="line"
         id="tspan5306"
         x="50.225491"
         y="147.74237"
         style="font-style:normal;font-variant:normal;font-weight:500;font-stretch:normal;font-family:Futura;-inkscape-font-specification:'Futura Medium';letter-spacing:-0.38335186px;fill:#f9f9f9;fill-opacity:1;stroke-width:0.23518518px">ova</tspan></text>
  </g>
</svg>
