<?xml version="1.0" encoding="UTF-8" standalone="no"?>
<!-- Created with Inkscape (http://www.inkscape.org/) -->

<svg
   xmlns:dc="http://purl.org/dc/elements/1.1/"
   xmlns:cc="http://creativecommons.org/ns#"
   xmlns:rdf="http://www.w3.org/1999/02/22-rdf-syntax-ns#"
   xmlns:svg="http://www.w3.org/2000/svg"
   xmlns="http://www.w3.org/2000/svg"
   xmlns:sodipodi="http://sodipodi.sourceforge.net/DTD/sodipodi-0.dtd"
   xmlns:inkscape="http://www.inkscape.org/namespaces/inkscape"
   width="782.86365"
   height="278.02316"
   id="svg2"
   version="1.1"
   inkscape:version="0.91+devel+osxmenu r12922"
   sodipodi:docname="arg-tech.svg"
   viewBox="0 0 782.86366 278.02316">
  <defs
     id="defs4" />
  <sodipodi:namedview
     id="base"
     pagecolor="#ffffff"
     bordercolor="#666666"
     borderopacity="1.0"
     inkscape:pageopacity="0.0"
     inkscape:pageshadow="2"
     inkscape:zoom="0.37459861"
     inkscape:cx="-0.034714592"
     inkscape:cy="33.083006"
     inkscape:document-units="px"
     inkscape:current-layer="layer1"
     showgrid="false"
     showguides="true"
     inkscape:guide-bbox="true"
     width="1052.36px"
     inkscape:window-width="1280"
     inkscape:window-height="713"
     inkscape:window-x="0"
     inkscape:window-y="23"
     inkscape:window-maximized="0"
     fit-margin-top="0.3"
     fit-margin-right="0.3"
     fit-margin-bottom="0.3"
     fit-margin-left="0.3" />
  <metadata
     id="metadata7">
    <rdf:RDF>
      <cc:Work
         rdf:about="">
        <dc:format>image/svg+xml</dc:format>
        <dc:type
           rdf:resource="http://purl.org/dc/dcmitype/StillImage" />
        <dc:title></dc:title>
      </cc:Work>
    </rdf:RDF>
  </metadata>
  <g
     inkscape:label="Layer 1"
     inkscape:groupmode="layer"
     id="layer1"
     transform="translate(-134.74925,-511.81561)">
    <g
       style="font-style:normal;font-variant:normal;font-weight:normal;font-stretch:normal;font-size:181.35328674px;line-height:125%;font-family:'Droid Sans';-inkscape-font-specification:'Droid Sans';letter-spacing:0px;word-spacing:0px;fill:#f2f2f2;fill-opacity:1;stroke:none"
       aria-label="ARG tech"
       id="text2985">
      <path
         d="m 225.19485,716.61053 -8.85514,-30.81589 -44.62991,0 -8.94369,30.81589 -27.7166,0 42.06192,-129.99346 33.56099,0 42.23902,129.99346 -27.71659,0 z m -15.23084,-53.83925 -8.32384,-28.33645 q -0.5313,-1.59393 -1.59392,-5.22454 -1.06262,-3.6306 -2.30234,-7.96962 -1.15117,-4.42757 -2.21378,-8.85514 -1.06262,-4.42757 -1.50538,-7.52687 -0.3542,1.94813 -0.97406,4.60467 -0.53131,2.65654 -1.32827,5.66729 -0.70841,2.9222 -1.50538,5.93294 -0.79696,3.01075 -1.50537,5.66729 -0.70841,2.65655 -1.32827,4.69323 -0.53131,2.03668 -0.79696,3.01075 l -8.23529,28.33645 31.61286,0 z"
         style="font-style:normal;font-variant:normal;font-weight:bold;font-stretch:normal;font-family:'Droid Sans';-inkscape-font-specification:'Droid Sans Bold';fill:#f2f2f2;fill-opacity:1"
         id="path7608"
         inkscape:connector-curvature="0" />
      <path
         d="m 296.74439,644.61824 7.43832,0 q 11.42313,0 16.38201,-4.51612 4.95888,-4.60468 4.95888,-13.45982 0,-9.20934 -5.31309,-13.10561 -5.31308,-3.89626 -16.47056,-3.89626 l -6.99556,0 0,34.97781 z m 0,22.31495 0,49.67734 -27.45094,0 0,-129.46216 35.42057,0 q 24.88294,0 36.74883,9.65211 11.86589,9.56355 11.86589,29.13341 0,6.64136 -1.77103,12.04299 -1.77103,5.40164 -4.78177,9.65211 -2.9222,4.16191 -6.81846,7.34976 -3.80771,3.0993 -8.05818,5.22454 9.8292,15.76215 17.62173,28.15935 3.36495,5.31308 6.46425,10.36051 3.18785,5.04743 5.66729,9.03224 2.47944,3.98482 4.07337,6.37571 l 1.50537,2.47943 -30.46168,0 -28.0708,-49.67734 -11.95444,0 z"
         style="font-style:normal;font-variant:normal;font-weight:bold;font-stretch:normal;font-family:'Droid Sans';-inkscape-font-specification:'Droid Sans Bold';fill:#f2f2f2;fill-opacity:1"
         id="path7610"
         inkscape:connector-curvature="0" />
      <path
         d="m 432.84791,643.90983 51.35982,0 0,67.12197 q -5.13599,1.68247 -10.36052,3.0993 -5.22453,1.32827 -10.89182,2.30233 -5.57874,0.88552 -11.77734,1.41682 -6.11005,0.53131 -13.01706,0.53131 -14.52243,0 -25.76846,-4.25046 -11.15747,-4.33902 -18.86145,-12.75141 -7.61542,-8.50093 -11.60023,-20.89813 -3.98482,-12.48575 -3.98482,-28.77921 0,-15.23084 4.42757,-27.53949 4.42758,-12.30864 13.01706,-20.89813 8.67804,-8.67804 21.25234,-13.28271 12.66285,-4.69323 28.95631,-4.69323 10.36052,0 20.27827,2.21379 9.91776,2.21378 18.15304,5.75584 l -9.12079,21.96075 q -6.0215,-3.01075 -13.63692,-5.04743 -7.52687,-2.03668 -15.8507,-2.03668 -9.03225,0 -16.29346,3.18785 -7.17266,3.0993 -12.30865,8.85514 -5.13598,5.75584 -7.88107,13.90257 -2.7451,8.14673 -2.7451,18.15304 0,9.56355 1.85958,17.53318 1.94813,7.88107 6.0215,13.63692 4.07336,5.75584 10.44907,8.94369 6.46425,3.18785 15.40794,3.18785 5.84439,0 9.82921,-0.53131 4.07336,-0.53131 7.61542,-1.23972 l 0,-27.00818 -24.52874,0 0,-22.84626 z"
         style="font-style:normal;font-variant:normal;font-weight:bold;font-stretch:normal;font-family:'Droid Sans';-inkscape-font-specification:'Droid Sans Bold';fill:#f2f2f2;fill-opacity:1"
         id="path7612"
         inkscape:connector-curvature="0" />
      <path
         d="m 600.29862,696.86357 q 3.98481,0 7.52687,-0.88551 3.63061,-0.88552 7.34977,-2.21379 l 0,20.10117 q -3.80771,1.94813 -9.475,3.18785 -5.57874,1.32827 -12.2201,1.32827 -6.46425,0 -12.04299,-1.50537 -5.57874,-1.50538 -9.6521,-5.22453 -4.07337,-3.80771 -6.46426,-10.09486 -2.30233,-6.37571 -2.30233,-15.93926 l 0,-47.72921 -12.92851,0 0,-11.42313 14.87664,-9.03224 7.79252,-20.89814 17.26753,0 0,21.07524 24.08598,0 0,20.27827 -24.08598,0 0,47.72921 q 0,5.75584 2.83364,8.50094 2.83365,2.74509 7.43832,2.74509 z"
         style="font-weight:bold;-inkscape-font-specification:'Droid Sans Bold';fill:#f2f2f2;fill-opacity:1"
         id="path7614"
         inkscape:connector-curvature="0" />
      <path
         d="m 675.21313,634.96614 q -7.17266,0 -11.95444,5.04743 -4.69322,5.04743 -5.40164,15.8507 l 34.4465,0 q -0.0885,-4.51612 -1.15117,-8.32383 -1.06261,-3.80772 -3.18785,-6.55281 -2.12523,-2.83364 -5.31308,-4.42757 -3.18785,-1.59392 -7.43832,-1.59392 z m 3.45351,83.41542 q -10.62617,0 -19.56987,-3.0993 -8.94369,-3.0993 -15.40794,-9.29789 -6.46425,-6.28715 -10.09486,-15.76216 -3.54206,-9.56355 -3.54206,-22.4035 0,-13.01706 3.2764,-22.75771 3.27641,-9.74066 9.1208,-16.20491 5.93294,-6.55281 14.16823,-9.82921 8.32383,-3.2764 18.41869,-3.2764 9.8292,0 17.71028,3.01075 7.96963,2.92219 13.45981,8.67804 5.57874,5.75584 8.50094,14.16822 3.01075,8.32383 3.01075,19.12711 l 0,13.1056 -60.39206,0 q 0.1771,5.66729 1.77102,10.27197 1.68248,4.51612 4.60468,7.70397 3.01075,3.0993 7.17266,4.78178 4.25047,1.68247 9.65211,1.68247 4.51612,0 8.50093,-0.44275 4.07337,-0.53131 7.88108,-1.50538 3.80771,-0.97406 7.52687,-2.39089 3.71916,-1.50537 7.61542,-3.4535 l 0,20.89813 q -3.54206,1.85958 -7.17267,3.18785 -3.54205,1.23972 -7.52687,2.12524 -3.98481,0.88551 -8.58948,1.23972 -4.60468,0.44275 -10.09486,0.44275 z"
         style="font-weight:bold;-inkscape-font-specification:'Droid Sans Bold';fill:#f2f2f2;fill-opacity:1"
         id="path7616"
         inkscape:connector-curvature="0" />
      <path
         d="m 781.91758,718.38156 q -10.62617,0 -19.21565,-2.92219 -8.50094,-2.9222 -14.61099,-9.03225 -6.02149,-6.1986 -9.29789,-15.76215 -3.18785,-9.6521 -3.18785,-23.02336 0,-14.78809 3.2764,-24.70585 3.36495,-10.00631 9.38645,-16.0278 6.11004,-6.0215 14.61098,-8.58949 8.58949,-2.56799 19.03855,-2.56799 7.61542,0 15.14229,1.85958 7.52687,1.85958 14.16823,5.22453 l -7.79252,20.54393 q -5.8444,-2.56799 -11.24603,-4.16192 -5.40164,-1.68247 -10.27197,-1.68247 -9.8292,0 -14.25677,7.52687 -4.42757,7.43831 -4.42757,22.4035 0,14.87664 4.42757,21.96075 4.42757,7.08411 13.90257,7.08411 7.70397,0 13.99112,-1.94813 6.28715,-2.03668 12.83995,-5.13598 l 0,22.49206 q -3.2764,1.59393 -6.3757,2.83365 -3.0993,1.23971 -6.28715,2.03668 -3.0993,0.79696 -6.5528,1.15117 -3.36495,0.44275 -7.26122,0.44275 z"
         style="font-weight:bold;-inkscape-font-specification:'Droid Sans Bold';fill:#f2f2f2;fill-opacity:1"
         id="path7618"
         inkscape:connector-curvature="0" />
      <path
         d="m 917.31268,716.61053 -27.00818,0 0,-57.82407 q 0,-10.71472 -3.36495,-16.0278 -3.2764,-5.40164 -10.18341,-5.40164 -5.22454,0 -8.76659,2.12524 -3.54206,2.12523 -5.66729,6.28715 -2.12524,4.16191 -3.01075,10.27196 -0.88552,6.11005 -0.88552,13.99112 l 0,46.57804 -27.00818,0 0,-137.78599 27.00818,0 0,28.0708 q 0,3.71916 -0.1771,7.88107 -0.1771,4.07337 -0.44276,7.52687 -0.3542,4.07337 -0.61986,7.96963 l 1.41683,0 q 4.33902,-7.70397 11.06892,-11.06893 6.72991,-3.4535 15.23084,-3.4535 7.34977,0 13.28272,2.12523 6.02149,2.03669 10.27196,6.46426 4.25047,4.42757 6.5528,11.33458 2.30234,6.81845 2.30234,16.38201 l 0,64.55397 z"
         style="font-weight:bold;-inkscape-font-specification:'Droid Sans Bold';fill:#f2f2f2;fill-opacity:1"
         id="path7620"
         inkscape:connector-curvature="0" />
    </g>
    <text
       xml:space="preserve"
       style="font-style:normal;font-variant:normal;font-weight:normal;font-stretch:normal;font-size:72px;line-height:125%;font-family:'Droid Sans';-inkscape-font-specification:'Droid Sans';letter-spacing:0px;word-spacing:0px;fill:#000000;fill-opacity:1;stroke:none"
       x="177.14285"
       y="426.64789"
       id="text3765"
       sodipodi:linespacing="125%"><tspan
         sodipodi:role="line"
         id="tspan3767"
         x="177.14285"
         y="426.64789" /></text>
    <g
       style="font-style:normal;font-variant:normal;font-weight:normal;font-stretch:normal;font-size:53.77898407px;line-height:125%;font-family:'Droid Sans';-inkscape-font-specification:'Droid Sans';letter-spacing:0px;word-spacing:0px;fill:#f2f2f2;fill-opacity:1;stroke:none"
       aria-label="Centre for Argument Technology"
       id="text3769">
      <path
         d="m 152.59045,741.98323 q -2.80975,0 -5.0943,1.07663 -2.28456,1.05037 -3.91263,3.04607 -1.60182,1.9957 -2.49463,4.85797 -0.86656,2.86226 -0.86656,6.45978 0,3.70255 0.76152,6.59107 0.78778,2.86226 2.33707,4.83171 1.5493,1.96944 3.86012,2.99355 2.31081,1.02412 5.40941,1.02412 2.33707,0 4.43781,-0.44641 2.10074,-0.47267 4.14897,-1.07663 l 0,4.254 q -1.02411,0.39389 -2.04823,0.709 -1.02411,0.28885 -2.15326,0.47267 -1.10288,0.18381 -2.38959,0.26259 -1.26044,0.10504 -2.80974,0.10504 -4.30652,0 -7.45763,-1.418 -3.15112,-1.418 -5.2256,-4.01767 -2.04822,-2.59967 -3.04607,-6.24971 -0.99786,-3.65004 -0.99786,-8.08785 0,-4.35904 1.12915,-7.98282 1.15541,-3.62378 3.36119,-6.22345 2.23204,-2.59967 5.51445,-4.04393 3.2824,-1.44426 7.53641,-1.44426 2.836,0 5.40941,0.57771 2.5734,0.5777 4.64789,1.68059 l -2.04823,4.09645 q -1.65433,-0.8403 -3.59752,-1.44426 -1.94318,-0.60396 -4.41155,-0.60396 z"
         style="fill:#f2f2f2"
         id="path7553"
         inkscape:connector-curvature="0" />
      <path
         d="m 180.18894,777.14439 q -2.88852,0 -5.27811,-0.9716 -2.3896,-0.97159 -4.12271,-2.836 -1.70685,-1.86441 -2.65218,-4.62163 -0.94534,-2.75722 -0.94534,-6.30222 0,-3.57126 0.86656,-6.38101 0.86655,-2.80974 2.44211,-4.75292 1.57556,-1.96945 3.75508,-2.99356 2.20577,-1.02411 4.85796,-1.02411 2.59967,0 4.67415,0.94533 2.07448,0.91908 3.51874,2.62593 1.44426,1.68059 2.20578,4.07019 0.78778,2.36333 0.78778,5.25185 l 0,2.9673 -18.17142,0 q 0.1313,5.06804 2.12701,7.45763 2.02196,2.38959 5.98711,2.38959 1.33922,0 2.46837,-0.13129 1.15541,-0.1313 2.20578,-0.36763 1.07663,-0.2626 2.07448,-0.63023 0.99785,-0.39388 2.02197,-0.86655 l 0,4.254 q -1.05038,0.49893 -2.07449,0.86656 -0.99785,0.36763 -2.07448,0.60396 -1.05037,0.23633 -2.20578,0.34137 -1.12915,0.10504 -2.46837,0.10504 z m -1.18167,-25.9179 q -2.99355,0 -4.75292,2.04822 -1.73312,2.04822 -2.02197,5.96086 l 12.91956,0 q 0,-1.78564 -0.36763,-3.25615 -0.34137,-1.49678 -1.10289,-2.54715 -0.73526,-1.05037 -1.89066,-1.62808 -1.15541,-0.5777 -2.78349,-0.5777 z"
         style="fill:#f2f2f2"
         id="path7555"
         inkscape:connector-curvature="0" />
      <path
         d="m 215.58644,776.6192 0,-18.5653 q 0,-3.41371 -1.39175,-5.12056 -1.36548,-1.70685 -4.30652,-1.70685 -2.127,0 -3.57126,0.68274 -1.44426,0.68274 -2.33707,2.02196 -0.86656,1.33923 -1.26045,3.28241 -0.36763,1.94319 -0.36763,4.46408 l 0,14.94152 -4.77918,0 0,-28.83268 3.88637,0 0.68274,3.88638 0.26259,0 q 0.65648,-1.12915 1.5493,-1.94319 0.91907,-0.8403 1.9957,-1.39174 1.07663,-0.55145 2.28456,-0.81404 1.20793,-0.26259 2.46837,-0.26259 4.80545,0 7.2213,2.52089 2.44211,2.49463 2.44211,8.00908 l 0,18.82789 -4.77918,0 z"
         style="fill:#f2f2f2"
         id="path7557"
         inkscape:connector-curvature="0" />
      <path
         d="m 238.01185,773.23176 q 0.47267,0 1.05037,-0.0525 0.60397,-0.0525 1.15541,-0.1313 0.55145,-0.0788 0.99785,-0.18381 0.47267,-0.10504 0.709,-0.18382 l 0,3.62378 q -0.34137,0.15756 -0.86655,0.31511 -0.52519,0.15756 -1.15541,0.26259 -0.63022,0.1313 -1.31296,0.18382 -0.68274,0.0788 -1.33923,0.0788 -1.62807,0 -3.01981,-0.42015 -1.39174,-0.42015 -2.41585,-1.44426 -0.99786,-1.02411 -1.57556,-2.75722 -0.5777,-1.75938 -0.5777,-4.41156 l 0,-16.72716 -4.07019,0 0,-2.127 4.07019,-2.04822 2.04822,-6.03963 2.75722,0 0,6.61733 7.24756,0 0,3.59752 -7.24756,0 0,16.72716 q 0,2.54715 0.81404,3.83385 0.8403,1.28671 2.73096,1.28671 z"
         style="fill:#f2f2f2"
         id="path7559"
         inkscape:connector-curvature="0" />
      <path
         d="m 260.04338,747.26134 q 0.76152,0 1.70685,0.0788 0.94534,0.0525 1.62808,0.18381 l -0.63023,4.41156 q -0.73525,-0.1313 -1.52303,-0.21008 -0.76152,-0.10503 -1.44426,-0.10503 -1.65434,0 -3.01982,0.68274 -1.36548,0.65648 -2.36333,1.91692 -0.9716,1.23419 -1.52304,2.99356 -0.52519,1.73311 -0.52519,3.86011 l 0,15.54549 -4.77918,0 0,-28.83268 3.88637,0 0.5777,5.27812 0.21008,0 q 0.65648,-1.12915 1.39174,-2.17952 0.76152,-1.05037 1.68059,-1.83815 0.94534,-0.81404 2.10074,-1.28671 1.15541,-0.49892 2.62593,-0.49892 z"
         style="fill:#f2f2f2"
         id="path7561"
         inkscape:connector-curvature="0" />
      <path
         d="m 280.39432,777.14439 q -2.88852,0 -5.27812,-0.9716 -2.38959,-0.97159 -4.1227,-2.836 -1.70685,-1.86441 -2.65219,-4.62163 -0.94533,-2.75722 -0.94533,-6.30222 0,-3.57126 0.86655,-6.38101 0.86656,-2.80974 2.44212,-4.75292 1.57555,-1.96945 3.75507,-2.99356 2.20578,-1.02411 4.85797,-1.02411 2.59966,0 4.67415,0.94533 2.07448,0.91908 3.51874,2.62593 1.44426,1.68059 2.20578,4.07019 0.78778,2.36333 0.78778,5.25185 l 0,2.9673 -18.17142,0 q 0.1313,5.06804 2.127,7.45763 2.02197,2.38959 5.98711,2.38959 1.33923,0 2.46838,-0.13129 1.1554,-0.1313 2.20577,-0.36763 1.07663,-0.2626 2.07449,-0.63023 0.99785,-0.39388 2.02196,-0.86655 l 0,4.254 q -1.05037,0.49893 -2.07448,0.86656 -0.99785,0.36763 -2.07448,0.60396 -1.05037,0.23633 -2.20578,0.34137 -1.12915,0.10504 -2.46837,0.10504 z m -1.18167,-25.9179 q -2.99356,0 -4.75293,2.04822 -1.73311,2.04822 -2.02196,5.96086 l 12.91956,0 q 0,-1.78564 -0.36763,-3.25615 -0.34137,-1.49678 -1.10289,-2.54715 -0.73526,-1.05037 -1.89067,-1.62808 -1.15541,-0.5777 -2.78348,-0.5777 z"
         style="fill:#f2f2f2"
         id="path7563"
         inkscape:connector-curvature="0" />
      <path
         d="m 324.27356,751.38404 -6.43352,0 0,25.23516 -4.80545,0 0,-25.23516 -5.0943,0 0,-1.96944 5.0943,-1.78563 0,-2.52089 q 0,-2.80974 0.5777,-4.64789 0.60397,-1.86441 1.70686,-2.9673 1.12914,-1.10289 2.75722,-1.5493 1.62807,-0.47266 3.6763,-0.47266 1.54929,0 2.836,0.31511 1.31296,0.28885 2.33707,0.65648 l -1.23418,3.70256 q -0.81404,-0.28886 -1.78563,-0.49893 -0.94534,-0.23633 -1.99571,-0.23633 -1.05037,0 -1.81189,0.26259 -0.76152,0.23633 -1.26044,0.86656 -0.49893,0.63022 -0.76152,1.73311 -0.23633,1.07663 -0.23633,2.78348 l 0,2.73096 6.43352,0 0,3.59752 z"
         style="fill:#f2f2f2"
         id="path7565"
         inkscape:connector-curvature="0" />
      <path
         d="m 353.0012,762.15034 q 0,3.59752 -0.89282,6.40727 -0.86655,2.78348 -2.52089,4.70041 -1.62807,1.89066 -3.96515,2.88851 -2.33707,0.99786 -5.25185,0.99786 -2.70471,0 -4.98926,-0.99786 -2.28456,-0.99785 -3.96515,-2.88851 -1.65434,-1.91693 -2.59967,-4.70041 -0.91907,-2.80975 -0.91907,-6.40727 0,-3.57126 0.86655,-6.32848 0.89282,-2.78348 2.52089,-4.67415 1.62808,-1.91693 3.96515,-2.88852 2.36334,-0.99785 5.27811,-0.99785 2.70471,0 4.98927,0.99785 2.28455,0.97159 3.93889,2.88852 1.68059,1.89067 2.59966,4.67415 0.94534,2.75722 0.94534,6.32848 z m -20.16712,0 q 0,5.48819 1.78563,8.27167 1.81189,2.75723 5.85582,2.75723 4.04392,0 5.80329,-2.75723 1.78563,-2.78348 1.78563,-8.27167 0,-5.48818 -1.81188,-8.19289 -1.78563,-2.73096 -5.82956,-2.73096 -4.04393,0 -5.82956,2.73096 -1.75937,2.70471 -1.75937,8.19289 z"
         style="fill:#f2f2f2"
         id="path7567"
         inkscape:connector-curvature="0" />
      <path
         d="m 373.06328,747.26134 q 0.76152,0 1.70685,0.0788 0.94533,0.0525 1.62807,0.18381 l -0.63022,4.41156 q -0.73526,-0.1313 -1.52304,-0.21008 -0.76151,-0.10503 -1.44426,-0.10503 -1.65433,0 -3.01981,0.68274 -1.36548,0.65648 -2.36334,1.91692 -0.97159,1.23419 -1.52303,2.99356 -0.52519,1.73311 -0.52519,3.86011 l 0,15.54549 -4.77919,0 0,-28.83268 3.88638,0 0.5777,5.27812 0.21007,0 q 0.65649,-1.12915 1.39175,-2.17952 0.76151,-1.05037 1.68059,-1.83815 0.94533,-0.81404 2.10074,-1.28671 1.15541,-0.49892 2.62593,-0.49892 z"
         style="fill:#f2f2f2"
         id="path7569"
         inkscape:connector-curvature="0" />
      <path
         d="m 419.12205,776.6192 -4.20149,-11.89545 -14.3113,0 -4.254,11.89545 -4.93674,0 14.10123,-38.54861 4.46407,0 14.12749,38.54861 -4.98926,0 z m -5.75078,-16.22823 -3.88637,-11.13393 q -0.15756,-0.47266 -0.39389,-1.15541 -0.21008,-0.68274 -0.44641,-1.47051 -0.23633,-0.78778 -0.47267,-1.62808 -0.23633,-0.86655 -0.44641,-1.68059 -0.18381,0.81404 -0.42014,1.68059 -0.23634,0.86656 -0.47267,1.68059 -0.23633,0.78778 -0.47267,1.47052 -0.21007,0.65649 -0.36763,1.10289 l -3.80759,11.13393 11.18645,0 z"
         style="fill:#f2f2f2"
         id="path7571"
         inkscape:connector-curvature="0" />
      <path
         d="m 441.12729,747.26134 q 0.76152,0 1.70685,0.0788 0.94533,0.0525 1.62808,0.18381 l -0.63023,4.41156 q -0.73526,-0.1313 -1.52303,-0.21008 -0.76152,-0.10503 -1.44426,-0.10503 -1.65434,0 -3.01982,0.68274 -1.36548,0.65648 -2.36334,1.91692 -0.97159,1.23419 -1.52303,2.99356 -0.52519,1.73311 -0.52519,3.86011 l 0,15.54549 -4.77919,0 0,-28.83268 3.88638,0 0.5777,5.27812 0.21007,0 q 0.65649,-1.12915 1.39175,-2.17952 0.76151,-1.05037 1.68059,-1.83815 0.94533,-0.81404 2.10074,-1.28671 1.15541,-0.49892 2.62593,-0.49892 z"
         style="fill:#f2f2f2"
         id="path7573"
         inkscape:connector-curvature="0" />
      <path
         d="m 471.77188,747.78652 0,2.9673 -5.17307,0.709 q 0.73526,0.91908 1.23418,2.36334 0.49893,1.418 0.49893,3.22989 0,1.9957 -0.63023,3.70255 -0.60396,1.6806 -1.8644,2.91478 -1.23419,1.23419 -3.07234,1.94319 -1.83815,0.68274 -4.28026,0.68274 -0.5777,0 -1.15541,0 -0.5777,-0.0263 -0.94533,-0.10504 -0.44641,0.26259 -0.89282,0.60396 -0.42014,0.31512 -0.78777,0.73526 -0.34137,0.42015 -0.57771,0.94534 -0.21007,0.52518 -0.21007,1.15541 0,0.709 0.31511,1.1554 0.31511,0.42015 0.8403,0.65649 0.55144,0.23633 1.2867,0.31511 0.73526,0.0788 1.5493,0.0788 l 4.62163,0 q 2.44211,0 4.1227,0.63023 1.6806,0.60396 2.73097,1.65433 1.07663,1.05037 1.5493,2.49463 0.47266,1.418 0.47266,3.01982 0,2.31081 -0.86655,4.14896 -0.8403,1.83815 -2.59967,3.0986 -1.75937,1.2867 -4.46408,1.96944 -2.67844,0.68274 -6.32848,0.68274 -2.80974,0 -4.91048,-0.55144 -2.10075,-0.55145 -3.49249,-1.60182 -1.39174,-1.05037 -2.10074,-2.54715 -0.68274,-1.47052 -0.68274,-3.33492 0,-1.57556 0.49893,-2.78349 0.52518,-1.18166 1.39174,-2.04822 0.86655,-0.86656 1.9957,-1.418 1.15541,-0.55145 2.3896,-0.8403 -1.10289,-0.49892 -1.81189,-1.57555 -0.709,-1.07663 -0.709,-2.46837 0,-1.60182 0.84029,-2.75723 0.8403,-1.18166 2.65219,-2.28455 -1.12915,-0.47267 -2.07448,-1.28671 -0.91908,-0.8403 -1.57556,-1.89067 -0.63022,-1.07663 -0.99785,-2.33707 -0.34137,-1.26045 -0.34137,-2.59967 0,-2.33707 0.65648,-4.17522 0.65648,-1.83815 1.94318,-3.12486 1.28671,-1.2867 3.20364,-1.96944 1.91692,-0.68274 4.46407,-0.68274 0.97159,0 1.99571,0.15755 1.05037,0.1313 1.75937,0.36763 l 9.53211,0 z m -21.29627,33.55935 q 0,0.97159 0.34137,1.81189 0.34138,0.8403 1.10289,1.44426 0.78778,0.60396 2.04823,0.94533 1.2867,0.36763 3.17737,0.36763 4.88422,0 7.30008,-1.52303 2.44211,-1.49678 2.44211,-4.33278 0,-1.20793 -0.31511,-1.96945 -0.31511,-0.76152 -1.05037,-1.20793 -0.709,-0.42014 -1.89067,-0.5777 -1.18167,-0.15756 -2.88852,-0.15756 l -4.62163,0 q -0.91908,0 -1.91693,0.21008 -0.99785,0.21007 -1.83815,0.78778 -0.81404,0.5777 -1.36548,1.57555 -0.52519,1.02411 -0.52519,2.62593 z m 2.41586,-24.28982 q 0,3.01981 1.418,4.49033 1.418,1.47052 4.01767,1.47052 2.62592,0 3.96515,-1.44426 1.36548,-1.47052 1.36548,-4.59537 0,-3.22989 -1.39174,-4.75293 -1.36549,-1.52304 -3.99141,-1.52304 -2.59967,0 -3.99141,1.57556 -1.39174,1.57555 -1.39174,4.77919 z"
         style="fill:#f2f2f2"
         id="path7575"
         inkscape:connector-curvature="0" />
      <path
         d="m 496.06169,776.6192 -0.709,-3.86011 -0.26259,0 q -0.65649,1.12915 -1.57556,1.96944 -0.89282,0.81404 -1.96945,1.36549 -1.07663,0.52518 -2.28455,0.78777 -1.20793,0.2626 -2.46837,0.2626 -2.3896,0 -4.20149,-0.60397 -1.81189,-0.60396 -3.01981,-1.89066 -1.20793,-1.28671 -1.83815,-3.28241 -0.60396,-1.99571 -0.60396,-4.75293 l 0,-18.8279 4.77918,0 0,18.56531 q 0,3.4137 1.39174,5.12055 1.39174,1.70686 4.30652,1.70686 2.127,0 3.57126,-0.68274 1.44426,-0.68274 2.31082,-1.99571 0.89282,-1.33922 1.26045,-3.28241 0.39388,-1.94318 0.39388,-4.46407 l 0,-14.96779 4.77919,0 0,28.83268 -3.86011,0 z"
         style="fill:#f2f2f2"
         id="path7577"
         inkscape:connector-curvature="0" />
      <path
         d="m 543.64348,776.6192 0,-18.5653 q 0,-3.41371 -1.31296,-5.12056 -1.31297,-1.70685 -4.07019,-1.70685 -1.91693,0 -3.25615,0.63022 -1.33922,0.60396 -2.20578,1.81189 -0.8403,1.18167 -1.23419,2.9673 -0.39388,1.75937 -0.39388,4.07018 l 0,15.91312 -4.80545,0 0,-18.5653 q 0,-3.41371 -1.31296,-5.12056 -1.28671,-1.70685 -4.04393,-1.70685 -2.02197,0 -3.38745,0.68274 -1.36548,0.68274 -2.20578,2.02196 -0.81403,1.33923 -1.18166,3.28241 -0.34137,1.94319 -0.34137,4.46408 l 0,14.94152 -4.77919,0 0,-28.83268 3.88637,0 0.68274,3.88638 0.2626,0 q 0.63022,-1.12915 1.49677,-1.94319 0.86656,-0.8403 1.89067,-1.39174 1.05037,-0.55145 2.20578,-0.81404 1.18167,-0.26259 2.38959,-0.26259 3.15112,0 5.2256,1.15541 2.10074,1.1554 3.09859,3.62378 l 0.21008,0 q 0.68274,-1.23419 1.62807,-2.12701 0.97159,-0.89281 2.10074,-1.47051 1.15541,-0.60397 2.41585,-0.89282 1.26045,-0.28885 2.57341,-0.28885 4.59538,0 6.90619,2.52089 2.33708,2.49463 2.33708,8.00908 l 0,18.82789 -4.77919,0 z"
         style="fill:#f2f2f2"
         id="path7579"
         inkscape:connector-curvature="0" />
      <path
         d="m 568.7211,777.14439 q -2.88852,0 -5.27811,-0.9716 -2.3896,-0.97159 -4.12271,-2.836 -1.70685,-1.86441 -2.65219,-4.62163 -0.94533,-2.75722 -0.94533,-6.30222 0,-3.57126 0.86656,-6.38101 0.86655,-2.80974 2.44211,-4.75292 1.57555,-1.96945 3.75507,-2.99356 2.20578,-1.02411 4.85797,-1.02411 2.59967,0 4.67415,0.94533 2.07448,0.91908 3.51874,2.62593 1.44426,1.68059 2.20578,4.07019 0.78778,2.36333 0.78778,5.25185 l 0,2.9673 -18.17142,0 q 0.1313,5.06804 2.127,7.45763 2.02197,2.38959 5.98712,2.38959 1.33922,0 2.46837,-0.13129 1.15541,-0.1313 2.20578,-0.36763 1.07663,-0.2626 2.07448,-0.63023 0.99785,-0.39388 2.02196,-0.86655 l 0,4.254 q -1.05037,0.49893 -2.07448,0.86656 -0.99785,0.36763 -2.07448,0.60396 -1.05037,0.23633 -2.20578,0.34137 -1.12915,0.10504 -2.46837,0.10504 z m -1.18167,-25.9179 q -2.99356,0 -4.75293,2.04822 -1.73311,2.04822 -2.02196,5.96086 l 12.91956,0 q 0,-1.78564 -0.36763,-3.25615 -0.34137,-1.49678 -1.10289,-2.54715 -0.73526,-1.05037 -1.89067,-1.62808 -1.1554,-0.5777 -2.78348,-0.5777 z"
         style="fill:#f2f2f2"
         id="path7581"
         inkscape:connector-curvature="0" />
      <path
         d="m 604.11859,776.6192 0,-18.5653 q 0,-3.41371 -1.39175,-5.12056 -1.36548,-1.70685 -4.30652,-1.70685 -2.127,0 -3.57126,0.68274 -1.44426,0.68274 -2.33707,2.02196 -0.86656,1.33923 -1.26045,3.28241 -0.36763,1.94319 -0.36763,4.46408 l 0,14.94152 -4.77918,0 0,-28.83268 3.88637,0 0.68274,3.88638 0.26259,0 q 0.65648,-1.12915 1.5493,-1.94319 0.91907,-0.8403 1.9957,-1.39174 1.07663,-0.55145 2.28456,-0.81404 1.20793,-0.26259 2.46837,-0.26259 4.80545,0 7.2213,2.52089 2.44211,2.49463 2.44211,8.00908 l 0,18.82789 -4.77918,0 z"
         style="fill:#f2f2f2"
         id="path7583"
         inkscape:connector-curvature="0" />
      <path
         d="m 626.544,773.23176 q 0.47266,0 1.05037,-0.0525 0.60396,-0.0525 1.1554,-0.1313 0.55145,-0.0788 0.99786,-0.18381 0.47266,-0.10504 0.709,-0.18382 l 0,3.62378 q -0.34137,0.15756 -0.86656,0.31511 -0.52518,0.15756 -1.15541,0.26259 -0.63022,0.1313 -1.31296,0.18382 -0.68274,0.0788 -1.33922,0.0788 -1.62808,0 -3.01982,-0.42015 -1.39174,-0.42015 -2.41585,-1.44426 -0.99785,-1.02411 -1.57556,-2.75722 -0.5777,-1.75938 -0.5777,-4.41156 l 0,-16.72716 -4.07019,0 0,-2.127 4.07019,-2.04822 2.04822,-6.03963 2.75722,0 0,6.61733 7.24756,0 0,3.59752 -7.24756,0 0,16.72716 q 0,2.54715 0.81404,3.83385 0.8403,1.28671 2.73097,1.28671 z"
         style="fill:#f2f2f2"
         id="path7585"
         inkscape:connector-curvature="0" />
      <path
         d="m 661.91522,776.6192 -4.91049,0 0,-34.08453 -10.97637,0 0,-4.30652 26.83697,0 0,4.30652 -10.95011,0 0,34.08453 z"
         style="fill:#f2f2f2"
         id="path7587"
         inkscape:connector-curvature="0" />
      <path
         d="m 686.15253,777.14439 q -2.88852,0 -5.27812,-0.9716 -2.38959,-0.97159 -4.1227,-2.836 -1.70686,-1.86441 -2.65219,-4.62163 -0.94533,-2.75722 -0.94533,-6.30222 0,-3.57126 0.86655,-6.38101 0.86656,-2.80974 2.44212,-4.75292 1.57555,-1.96945 3.75507,-2.99356 2.20578,-1.02411 4.85797,-1.02411 2.59966,0 4.67415,0.94533 2.07448,0.91908 3.51874,2.62593 1.44426,1.68059 2.20578,4.07019 0.78777,2.36333 0.78777,5.25185 l 0,2.9673 -18.17141,0 q 0.1313,5.06804 2.127,7.45763 2.02196,2.38959 5.98711,2.38959 1.33923,0 2.46838,-0.13129 1.1554,-0.1313 2.20577,-0.36763 1.07663,-0.2626 2.07449,-0.63023 0.99785,-0.39388 2.02196,-0.86655 l 0,4.254 q -1.05037,0.49893 -2.07448,0.86656 -0.99785,0.36763 -2.07448,0.60396 -1.05038,0.23633 -2.20578,0.34137 -1.12915,0.10504 -2.46837,0.10504 z m -1.18167,-25.9179 q -2.99356,0 -4.75293,2.04822 -1.73311,2.04822 -2.02196,5.96086 l 12.91956,0 q 0,-1.78564 -0.36763,-3.25615 -0.34137,-1.49678 -1.10289,-2.54715 -0.73526,-1.05037 -1.89067,-1.62808 -1.15541,-0.5777 -2.78348,-0.5777 z"
         style="fill:#f2f2f2"
         id="path7589"
         inkscape:connector-curvature="0" />
      <path
         d="m 714.56505,777.14439 q -2.65219,0 -4.963,-0.81404 -2.31082,-0.8403 -4.01767,-2.62593 -1.70686,-1.81189 -2.67845,-4.59537 -0.97159,-2.80974 -0.97159,-6.74863 0,-4.12271 0.99785,-6.98497 0.99785,-2.88852 2.73096,-4.67415 1.75938,-1.81189 4.09645,-2.62592 2.33708,-0.81404 5.01552,-0.81404 2.04822,0 3.99141,0.44641 1.96945,0.4464 3.28241,1.10289 l -1.418,4.04392 q -0.60396,-0.26259 -1.33922,-0.49892 -0.73526,-0.2626 -1.52304,-0.44641 -0.78778,-0.21008 -1.5493,-0.31511 -0.76152,-0.1313 -1.44426,-0.1313 -4.1227,0 -6.01337,2.65219 -1.89067,2.62592 -1.89067,8.19289 0,5.54071 1.89067,8.11411 1.91693,2.54715 5.8033,2.54715 2.127,0 3.83385,-0.47266 1.73311,-0.49893 3.15111,-1.15541 l 0,4.254 q -1.418,0.76152 -3.04607,1.15541 -1.60182,0.39389 -3.93889,0.39389 z"
         style="fill:#f2f2f2"
         id="path7591"
         inkscape:connector-curvature="0" />
      <path
         d="m 746.44381,776.6192 0,-18.5653 q 0,-3.41371 -1.39174,-5.12056 -1.36548,-1.70685 -4.30652,-1.70685 -2.127,0 -3.57126,0.68274 -1.44426,0.68274 -2.33708,2.02196 -0.86655,1.33923 -1.26044,3.28241 -0.36763,1.94319 -0.36763,4.46408 l 0,14.94152 -4.77919,0 0,-40.85942 4.77919,0 0,12.13178 -0.21007,3.78134 0.26259,0 q 0.65648,-1.12915 1.5493,-1.94319 0.91907,-0.8403 1.9957,-1.39174 1.07663,-0.55145 2.28456,-0.81404 1.20792,-0.26259 2.46837,-0.26259 4.80544,0 7.2213,2.52089 2.44211,2.49463 2.44211,8.00908 l 0,18.82789 -4.77919,0 z"
         style="fill:#f2f2f2"
         id="path7593"
         inkscape:connector-curvature="0" />
      <path
         d="m 778.165,776.6192 0,-18.5653 q 0,-3.41371 -1.39174,-5.12056 -1.36548,-1.70685 -4.30652,-1.70685 -2.127,0 -3.57126,0.68274 -1.44426,0.68274 -2.33707,2.02196 -0.86656,1.33923 -1.26045,3.28241 -0.36763,1.94319 -0.36763,4.46408 l 0,14.94152 -4.77919,0 0,-28.83268 3.88638,0 0.68274,3.88638 0.26259,0 q 0.65648,-1.12915 1.5493,-1.94319 0.91907,-0.8403 1.9957,-1.39174 1.07663,-0.55145 2.28456,-0.81404 1.20792,-0.26259 2.46837,-0.26259 4.80545,0 7.2213,2.52089 2.44211,2.49463 2.44211,8.00908 l 0,18.82789 -4.77919,0 z"
         style="fill:#f2f2f2"
         id="path7595"
         inkscape:connector-curvature="0" />
      <path
         d="m 815.37438,762.15034 q 0,3.59752 -0.89281,6.40727 -0.86656,2.78348 -2.52089,4.70041 -1.62808,1.89066 -3.96515,2.88851 -2.33708,0.99786 -5.25186,0.99786 -2.7047,0 -4.98926,-0.99786 -2.28455,-0.99785 -3.96515,-2.88851 -1.65433,-1.91693 -2.59967,-4.70041 -0.91907,-2.80975 -0.91907,-6.40727 0,-3.57126 0.86656,-6.32848 0.89281,-2.78348 2.52089,-4.67415 1.62807,-1.91693 3.96515,-2.88852 2.36333,-0.99785 5.27811,-0.99785 2.7047,0 4.98926,0.99785 2.28456,0.97159 3.93889,2.88852 1.68059,1.89067 2.59967,4.67415 0.94533,2.75722 0.94533,6.32848 z m -20.16712,0 q 0,5.48819 1.78563,8.27167 1.81189,2.75723 5.85582,2.75723 4.04393,0 5.8033,-2.75723 1.78563,-2.78348 1.78563,-8.27167 0,-5.48818 -1.81189,-8.19289 -1.78563,-2.73096 -5.82956,-2.73096 -4.04393,0 -5.82956,2.73096 -1.75937,2.70471 -1.75937,8.19289 z"
         style="fill:#f2f2f2"
         id="path7597"
         inkscape:connector-curvature="0" />
      <path
         d="m 827.74253,776.6192 -4.77919,0 0,-40.85942 4.77919,0 0,40.85942 z"
         style="fill:#f2f2f2"
         id="path7599"
         inkscape:connector-curvature="0" />
      <path
         d="m 860.43529,762.15034 q 0,3.59752 -0.89281,6.40727 -0.86656,2.78348 -2.52089,4.70041 -1.62807,1.89066 -3.96515,2.88851 -2.33707,0.99786 -5.25185,0.99786 -2.70471,0 -4.98926,-0.99786 -2.28456,-0.99785 -3.96515,-2.88851 -1.65434,-1.91693 -2.59967,-4.70041 -0.91908,-2.80975 -0.91908,-6.40727 0,-3.57126 0.86656,-6.32848 0.89281,-2.78348 2.52089,-4.67415 1.62807,-1.91693 3.96515,-2.88852 2.36333,-0.99785 5.27811,-0.99785 2.70471,0 4.98926,0.99785 2.28456,0.97159 3.93889,2.88852 1.6806,1.89067 2.59967,4.67415 0.94533,2.75722 0.94533,6.32848 z m -20.16711,0 q 0,5.48819 1.78563,8.27167 1.81189,2.75723 5.85581,2.75723 4.04393,0 5.8033,-2.75723 1.78563,-2.78348 1.78563,-8.27167 0,-5.48818 -1.81189,-8.19289 -1.78563,-2.73096 -5.82956,-2.73096 -4.04392,0 -5.82955,2.73096 -1.75937,2.70471 -1.75937,8.19289 z"
         style="fill:#f2f2f2"
         id="path7601"
         inkscape:connector-curvature="0" />
      <path
         d="m 890.23959,747.78652 0,2.9673 -5.17307,0.709 q 0.73526,0.91908 1.23418,2.36334 0.49893,1.418 0.49893,3.22989 0,1.9957 -0.63022,3.70255 -0.60397,1.6806 -1.86441,2.91478 -1.23419,1.23419 -3.07234,1.94319 -1.83814,0.68274 -4.28026,0.68274 -0.5777,0 -1.1554,0 -0.57771,-0.0263 -0.94534,-0.10504 -0.44641,0.26259 -0.89281,0.60396 -0.42015,0.31512 -0.78778,0.73526 -0.34137,0.42015 -0.57771,0.94534 -0.21007,0.52518 -0.21007,1.15541 0,0.709 0.31511,1.1554 0.31511,0.42015 0.8403,0.65649 0.55144,0.23633 1.2867,0.31511 0.73526,0.0788 1.5493,0.0788 l 4.62163,0 q 2.44211,0 4.12271,0.63023 1.68059,0.60396 2.73096,1.65433 1.07663,1.05037 1.5493,2.49463 0.47266,1.418 0.47266,3.01982 0,2.31081 -0.86655,4.14896 -0.8403,1.83815 -2.59967,3.0986 -1.75937,1.2867 -4.46408,1.96944 -2.67844,0.68274 -6.32848,0.68274 -2.80974,0 -4.91048,-0.55144 -2.10074,-0.55145 -3.49249,-1.60182 -1.39174,-1.05037 -2.10074,-2.54715 -0.68274,-1.47052 -0.68274,-3.33492 0,-1.57556 0.49893,-2.78349 0.52518,-1.18166 1.39174,-2.04822 0.86656,-0.86656 1.9957,-1.418 1.15541,-0.55145 2.3896,-0.8403 -1.10289,-0.49892 -1.81189,-1.57555 -0.709,-1.07663 -0.709,-2.46837 0,-1.60182 0.84029,-2.75723 0.8403,-1.18166 2.65219,-2.28455 -1.12915,-0.47267 -2.07448,-1.28671 -0.91908,-0.8403 -1.57556,-1.89067 -0.63022,-1.07663 -0.99785,-2.33707 -0.34137,-1.26045 -0.34137,-2.59967 0,-2.33707 0.65648,-4.17522 0.65648,-1.83815 1.94319,-3.12486 1.2867,-1.2867 3.20363,-1.96944 1.91692,-0.68274 4.46407,-0.68274 0.9716,0 1.99571,0.15755 1.05037,0.1313 1.75937,0.36763 l 9.53211,0 z m -21.29626,33.55935 q 0,0.97159 0.34137,1.81189 0.34137,0.8403 1.10289,1.44426 0.78777,0.60396 2.04822,0.94533 1.2867,0.36763 3.17737,0.36763 4.88423,0 7.30008,-1.52303 2.44211,-1.49678 2.44211,-4.33278 0,-1.20793 -0.31511,-1.96945 -0.31511,-0.76152 -1.05037,-1.20793 -0.709,-0.42014 -1.89067,-0.5777 -1.18167,-0.15756 -2.88852,-0.15756 l -4.62163,0 q -0.91907,0 -1.91693,0.21008 -0.99785,0.21007 -1.83815,0.78778 -0.81403,0.5777 -1.36548,1.57555 -0.52518,1.02411 -0.52518,2.62593 z m 2.41585,-24.28982 q 0,3.01981 1.418,4.49033 1.418,1.47052 4.01767,1.47052 2.62593,0 3.96515,-1.44426 1.36548,-1.47052 1.36548,-4.59537 0,-3.22989 -1.39174,-4.75293 -1.36548,-1.52304 -3.99141,-1.52304 -2.59967,0 -3.99141,1.57556 -1.39174,1.57555 -1.39174,4.77919 z"
         style="fill:#f2f2f2"
         id="path7603"
         inkscape:connector-curvature="0" />
      <path
         d="m 891.55257,747.78652 4.963,0 5.64575,16.09694 q 0.36763,1.05037 0.73526,2.20577 0.39388,1.15541 0.709,2.31082 0.34137,1.15541 0.5777,2.23204 0.23633,1.07663 0.34137,1.9957 l 0.15756,0 q 0.13129,-0.65648 0.42014,-1.78563 0.28886,-1.12915 0.63023,-2.38959 0.36763,-1.28671 0.73526,-2.52089 0.39388,-1.23419 0.68274,-2.10074 l 5.22559,-16.04442 4.93674,0 -11.39652,32.58776 q -0.73526,2.127 -1.60181,3.80759 -0.8403,1.70685 -1.96945,2.88852 -1.12915,1.18167 -2.65219,1.81189 -1.52303,0.65648 -3.62377,0.65648 -1.36549,0 -2.36334,-0.15755 -0.99785,-0.1313 -1.70685,-0.28886 l 0,-3.80759 q 0.55144,0.1313 1.39174,0.21007 0.8403,0.10504 1.75937,0.10504 1.26045,0 2.17952,-0.31511 0.91907,-0.28885 1.60182,-0.86656 0.68274,-0.5777 1.1554,-1.418 0.49893,-0.84029 0.89282,-1.91692 l 1.49678,-4.20149 -10.92386,-29.09527 z"
         style="fill:#f2f2f2"
         id="path7605"
         inkscape:connector-curvature="0" />
    </g>
    <path
       style="fill:#f2f2f2;fill-opacity:1;fill-rule:evenodd;stroke:none"
       d="m 506.78,656.86444 38.8022,0 0,22.259 -38.8022,0 z"
       id="rect3777"
       inkscape:connector-curvature="0" />
    <text
       xml:space="preserve"
       style="font-style:normal;font-variant:normal;font-weight:normal;font-stretch:normal;font-size:55.34212494px;line-height:125%;font-family:'Open Sans';-inkscape-font-specification:'Open Sans';letter-spacing:0px;word-spacing:0px;fill:#e6e6e6;fill-opacity:1;stroke:none;stroke-width:1.38355315px;stroke-linecap:butt;stroke-linejoin:miter;stroke-opacity:1"
       x="562.72314"
       y="554.16266"
       id="text7622"
       sodipodi:linespacing="125%"><tspan
         sodipodi:role="line"
         id="tspan7624"
         x="562.72314"
         y="554.16266"
         style="fill:#e6e6e6;stroke-width:1.38355315px">Developed By</tspan></text>
  </g>
</svg>
