<?xml version="1.0" encoding="UTF-8" standalone="no"?>
<svg
   xmlns:dc="http://purl.org/dc/elements/1.1/"
   xmlns:cc="http://creativecommons.org/ns#"
   xmlns:rdf="http://www.w3.org/1999/02/22-rdf-syntax-ns#"
   xmlns:svg="http://www.w3.org/2000/svg"
   xmlns="http://www.w3.org/2000/svg"
   xmlns:sodipodi="http://sodipodi.sourceforge.net/DTD/sodipodi-0.dtd"
   xmlns:inkscape="http://www.inkscape.org/namespaces/inkscape"
   width="31.361032mm"
   height="8.4178915mm"
   viewBox="0 0 31.361032 8.4178915"
   id="svg4584"
   version="1.1"
   inkscape:version="1.0.1 (c497b03c, 2020-09-10)"
   sodipodi:docname="beta-logo.svg"
   inkscape:export-filename="/Users/john/Desktop/o3b-logo.png"
   inkscape:export-xdpi="538.52002"
   inkscape:export-ydpi="538.52002">
  <defs
     id="defs4586" />
  <sodipodi:namedview
     id="base"
     pagecolor="#ffffff"
     bordercolor="#666666"
     borderopacity="1.0"
     inkscape:pageopacity="0.0"
     inkscape:pageshadow="2"
     inkscape:zoom="5.03"
     inkscape:cx="60.775564"
     inkscape:cy="-2.8005161"
     inkscape:document-units="mm"
     inkscape:current-layer="layer1"
     showgrid="false"
     fit-margin-top="0.1"
     fit-margin-left="0.1"
     fit-margin-bottom="0.1"
     fit-margin-right="0.1"
     inkscape:window-width="1396"
     inkscape:window-height="847"
     inkscape:window-x="44"
     inkscape:window-y="25"
     inkscape:window-maximized="0"
     inkscape:document-rotation="0"
     lock-margins="true" />
  <metadata
     id="metadata4589">
    <rdf:RDF>
      <cc:Work
         rdf:about="">
        <dc:format>image/svg+xml</dc:format>
        <dc:type
           rdf:resource="http://purl.org/dc/dcmitype/StillImage" />
        <dc:title></dc:title>
      </cc:Work>
    </rdf:RDF>
  </metadata>
  <g
     inkscape:label="Layer 1"
     inkscape:groupmode="layer"
     id="layer1"
     transform="translate(-38.199472,-140.40664)">
    <g
       id="g5362"
       transform="matrix(0.78875747,0,0,0.78875747,11.012167,28.006759)"
       style="opacity:0.4;fill:#f9f9f9;fill-opacity:1">
      <path
         id="path5348"
         transform="scale(0.26458333)"
         d="m 163.00195,540.11523 c -4.39896,0 -8.27246,2.3632 -10.5332,5.95118 -1.70793,-1.26868 -3.88948,-2.02539 -6.26758,-2.02539 -5.47352,0 -9.91601,4.02854 -9.91601,9.00195 0,0.80345 0.12451,1.57903 0.34179,2.32031 -3.5187,2.17142 -5.87304,6.13043 -5.87304,10.66016 0,6.86275 5.40792,12.42578 12.07617,12.42578 h 31.88867 c 4.00097,0 7.81836,-6.09144 7.81836,-12.14844 0,-5.71899 -3.39692,-9.89635 -7.14453,-10.3457 0.15394,-0.82874 0.23242,-1.68637 0.23242,-2.5625 0,-7.33508 -5.64915,-13.27735 -12.62305,-13.27735 z m -6.35547,13.14649 a 9.8485646,9.8485646 0 0 1 9.84766,9.84766 9.8485646,9.8485646 0 0 1 -9.84766,9.8496 9.8485646,9.8485646 0 0 1 -9.8496,-9.8496 9.8485646,9.8485646 0 0 1 9.8496,-9.84766 z"
         style="fill:#f9f9f9;fill-opacity:1;stroke:none;stroke-width:1"
         inkscape:connector-curvature="0" />
      <ellipse
         style="fill:#f9f9f9;fill-opacity:1;stroke:none;stroke-width:0.162961"
         id="ellipse5354"
         transform="rotate(19.205818)"
         cx="88.146042"
         cy="125.12615"
         rx="0.53274959"
         ry="0.34370941" />
      <circle
         style="fill:#f9f9f9;fill-opacity:1;stroke:none;stroke-width:0.229626"
         id="circle5356"
         cx="42.925842"
         cy="147.63924"
         r="0.26637477" />
    </g>
    <g
       aria-label="3"
       id="text5304-6"
       style="font-style:normal;font-variant:normal;font-weight:normal;font-stretch:normal;font-size:7.692px;line-height:0%;font-family:'Open Sans';-inkscape-font-specification:'Open Sans';letter-spacing:0px;word-spacing:0px;opacity:0.399;fill:#f9f9f9;fill-opacity:1;stroke:none;stroke-width:0.150753px;stroke-linecap:butt;stroke-linejoin:miter;stroke-opacity:1">
      <path
         d="m 67.458494,145.05003 q 0.04824,0.006 0.07839,0.006 0.03618,0 0.0603,0 0.223115,0 0.361809,-0.13266 0.138693,-0.13267 0.138693,-0.34372 0,-0.20503 -0.132663,-0.33166 -0.126633,-0.12663 -0.331658,-0.12663 -0.217086,0 -0.349749,0.14472 -0.132663,0.14472 -0.132663,0.37387 h -1.091458 q 0.04221,-0.35578 0.174875,-0.63317 0.138693,-0.27738 0.349749,-0.46432 0.211055,-0.19296 0.494472,-0.28945 0.283417,-0.10251 0.627135,-0.10251 0.337689,0 0.609046,0.0965 0.277386,0.0905 0.470351,0.26533 0.198995,0.16885 0.301508,0.41608 0.108542,0.24121 0.108542,0.54271 0,0.32563 -0.126633,0.53669 -0.120603,0.20502 -0.349748,0.35578 0.349748,0.10854 0.542713,0.39196 0.198995,0.27738 0.198995,0.68743 0,0.33769 -0.132663,0.61508 -0.132664,0.27739 -0.37387,0.47638 -0.235175,0.199 -0.566834,0.30754 -0.325628,0.10854 -0.717587,0.10854 -0.524624,0 -0.946734,-0.20502 -0.422111,-0.20503 -0.675377,-0.65126 -0.114573,-0.19899 -0.156784,-0.39799 -0.03618,-0.19899 -0.03618,-0.40402 h 1.169849 q 0.01206,0.3196 0.186935,0.48844 0.174874,0.16282 0.470352,0.16282 0.313568,0 0.458291,-0.16885 0.144724,-0.16884 0.144724,-0.41608 0,-0.29548 -0.174875,-0.44623 -0.174874,-0.15075 -0.41608,-0.15075 -0.0603,0 -0.114573,0.0121 -0.05427,0.006 -0.120603,0.0181 z"
         style="font-style:normal;font-variant:normal;font-weight:bold;font-stretch:normal;font-size:6.03015px;line-height:1.25;font-family:Futura;-inkscape-font-specification:'Futura Bold';letter-spacing:-0.245728px;opacity:0.398714;fill:#f9f9f9;fill-opacity:1;stroke-width:0.150753px"
         id="path857" />
    </g>
    <g
       aria-label="ova"
       id="text5304"
       style="font-style:normal;font-variant:normal;font-weight:normal;font-stretch:normal;line-height:0%;font-family:'Open Sans';-inkscape-font-specification:'Open Sans';letter-spacing:0px;word-spacing:0px;fill:#f9f9f9;fill-opacity:1;stroke:none;stroke-width:0.235185px;stroke-linecap:butt;stroke-linejoin:miter;stroke-opacity:1">
      <path
         d="m 50.466474,145.4732 q 0,-0.96922 0.693612,-1.64905 0.693613,-0.67983 1.690394,-0.67983 1.001375,0 1.699581,0.68442 0.689019,0.68443 0.689019,1.68121 0,1.00597 -0.693612,1.6858 -0.698207,0.67524 -1.713362,0.67524 -1.005968,0 -1.6858,-0.68902 -0.679832,-0.67983 -0.679832,-1.70877 z m 1.056496,0.0184 q 0,0.67065 0.35829,1.06109 0.367477,0.39504 0.96922,0.39504 0.606337,0 0.969221,-0.39044 0.362883,-0.39045 0.362883,-1.04272 0,-0.65227 -0.362883,-1.04271 -0.367477,-0.39504 -0.969221,-0.39504 -0.592556,0 -0.960033,0.39504 -0.367477,0.39503 -0.367477,1.01974 z"
         style="font-style:normal;font-variant:normal;font-weight:500;font-stretch:normal;font-size:9.40741px;line-height:1.25;font-family:Futura;-inkscape-font-specification:'Futura Medium';letter-spacing:-0.383352px;fill:#f9f9f9;fill-opacity:1;stroke-width:0.235185px"
         id="path850" />
      <path
         d="m 56.325636,143.26834 1.157552,2.51262 1.152959,-2.51262 h 1.162146 l -2.324292,4.78179 -2.305917,-4.78179 z"
         style="font-style:normal;font-variant:normal;font-weight:500;font-stretch:normal;font-size:9.40741px;line-height:1.25;font-family:Futura;-inkscape-font-specification:'Futura Medium';letter-spacing:-0.383352px;fill:#f9f9f9;fill-opacity:1;stroke-width:0.235185px"
         id="path852" />
      <path
         d="m 63.250481,143.26834 h 1.038123 v 4.47403 h -1.038123 v -0.46853 q -0.638491,0.59715 -1.373445,0.59715 -0.927879,0 -1.534216,-0.67065 -0.601744,-0.68442 -0.601744,-1.70877 0,-1.00596 0.601744,-1.67661 0.601743,-0.67064 1.506655,-0.67064 0.780889,0 1.401006,0.64308 z m -2.452908,2.22323 q 0,0.64309 0.344509,1.04731 0.353697,0.40882 0.891132,0.40882 0.574183,0 0.927879,-0.39504 0.353697,-0.40881 0.353697,-1.03812 0,-0.6293 -0.353697,-1.03812 -0.353696,-0.39963 -0.918692,-0.39963 -0.532842,0 -0.891132,0.40422 -0.353696,0.40882 -0.353696,1.01056 z"
         style="font-style:normal;font-variant:normal;font-weight:500;font-stretch:normal;font-size:9.40741px;line-height:1.25;font-family:Futura;-inkscape-font-specification:'Futura Medium';letter-spacing:-0.383352px;fill:#f9f9f9;fill-opacity:1;stroke-width:0.235185px"
         id="path854" />
    </g>
    <rect
       style="opacity:0.399;fill:#ffffff;fill-opacity:1;stroke:none;stroke-width:0.138058;stroke-linecap:square;paint-order:markers stroke fill"
       id="rect864"
       width="6.0555563"
       height="2"
       x="62.668457"
       y="140.50664" />
    <g
       aria-label="BETA"
       id="text5304-63"
       style="font-style:normal;font-variant:normal;font-weight:500;font-stretch:normal;font-size:1.78329px;line-height:0%;font-family:Avenir;-inkscape-font-specification:'Avenir Medium';letter-spacing:0px;word-spacing:0px;opacity:0.9;fill:#f9f9f9;fill-opacity:1;stroke:none;stroke-width:0.0349502px;stroke-linecap:butt;stroke-linejoin:miter;stroke-opacity:1">
      <path
         d="m 64.210936,141.01175 h 0.343911 q 0.06431,0 0.118831,0.0154 0.05592,0.0154 0.09506,0.0461 0.04054,0.0294 0.06291,0.0769 0.02377,0.0461 0.02377,0.10905 0,0.0853 -0.04753,0.1398 -0.04753,0.0531 -0.123025,0.0783 v 0.003 q 0.04474,0.003 0.08388,0.0238 0.03914,0.0196 0.0671,0.0531 0.02936,0.0322 0.04613,0.0755 0.01678,0.0433 0.01678,0.0937 0,0.0671 -0.02796,0.11883 -0.02656,0.0503 -0.07409,0.0853 -0.04753,0.035 -0.110442,0.0531 -0.06291,0.0182 -0.135607,0.0182 h -0.339717 z m 0.134209,0.41101 h 0.18314 q 0.03775,0 0.0713,-0.007 0.03355,-0.008 0.05872,-0.0266 0.02517,-0.0182 0.03915,-0.0461 0.01538,-0.028 0.01538,-0.0685 0,-0.0587 -0.03775,-0.10206 -0.03775,-0.0433 -0.118831,-0.0433 h -0.2111 z m 0,0.46135 h 0.19712 q 0.03076,0 0.0671,-0.006 0.03775,-0.007 0.0699,-0.0252 0.03215,-0.0196 0.05452,-0.0517 0.02237,-0.0322 0.02237,-0.0853 0,-0.0881 -0.05732,-0.13142 -0.05732,-0.0447 -0.155179,-0.0447 h -0.198518 z"
         style="font-style:normal;font-variant:normal;font-weight:500;font-stretch:normal;font-size:1.39801px;line-height:1.25;font-family:Avenir;-inkscape-font-specification:'Avenir Medium';letter-spacing:-0.0569688px;fill:#f9f9f9;fill-opacity:1;stroke-width:0.0349502px"
         id="path860" />
      <path
         d="m 65.035915,141.01175 h 0.638891 v 0.12582 h -0.504682 v 0.29498 h 0.469731 v 0.12582 h -0.469731 v 0.31735 h 0.529846 v 0.12582 h -0.664055 z"
         style="font-style:normal;font-variant:normal;font-weight:500;font-stretch:normal;font-size:1.39801px;line-height:1.25;font-family:Avenir;-inkscape-font-specification:'Avenir Medium';letter-spacing:-0.0569688px;fill:#f9f9f9;fill-opacity:1;stroke-width:0.0349502px"
         id="path862" />
      <path
         d="m 66.040495,141.13757 h -0.318747 v -0.12582 h 0.771702 v 0.12582 h -0.318746 v 0.86397 h -0.134209 z"
         style="font-style:normal;font-variant:normal;font-weight:500;font-stretch:normal;font-size:1.39801px;line-height:1.25;font-family:Avenir;-inkscape-font-specification:'Avenir Medium';letter-spacing:-0.0569688px;fill:#f9f9f9;fill-opacity:1;stroke-width:0.0349502px"
         id="path864" />
      <path
         d="m 66.761409,141.01175 h 0.121627 l 0.423597,0.98979 h -0.156577 l -0.09926,-0.24465 h -0.471129 l -0.09786,0.24465 H 66.32523 Z m 0.240458,0.62771 -0.184537,-0.45436 h -0.0028 l -0.187334,0.45436 z"
         style="font-style:normal;font-variant:normal;font-weight:500;font-stretch:normal;font-size:1.39801px;line-height:1.25;font-family:Avenir;-inkscape-font-specification:'Avenir Medium';letter-spacing:-0.0569688px;fill:#f9f9f9;fill-opacity:1;stroke-width:0.0349502px"
         id="path866" />
    </g>
  </g>
</svg>
