<?xml version="1.0" encoding="UTF-8" standalone="no"?>
<svg
   xmlns:dc="http://purl.org/dc/elements/1.1/"
   xmlns:cc="http://creativecommons.org/ns#"
   xmlns:rdf="http://www.w3.org/1999/02/22-rdf-syntax-ns#"
   xmlns:svg="http://www.w3.org/2000/svg"
   xmlns="http://www.w3.org/2000/svg"
   xmlns:sodipodi="http://sodipodi.sourceforge.net/DTD/sodipodi-0.dtd"
   xmlns:inkscape="http://www.inkscape.org/namespaces/inkscape"
   width="30.054394mm"
   height="8.2000046mm"
   viewBox="0 0 30.054394 8.2000046"
   id="svg4584"
   version="1.1"
   inkscape:version="1.0.1 (c497b03c, 2020-09-10)"
   sodipodi:docname="logo.svg"
   inkscape:export-filename="/Users/john/Dropbox/ARG/OVA3/res/img/logo.png"
   inkscape:export-xdpi="538.52002"
   inkscape:export-ydpi="538.52002">
  <defs
     id="defs4586" />
  <sodipodi:namedview
     id="base"
     pagecolor="#ffffff"
     bordercolor="#666666"
     borderopacity="1.0"
     inkscape:pageopacity="0.0"
     inkscape:pageshadow="2"
     inkscape:zoom="4.626087"
     inkscape:cx="73.000005"
     inkscape:cy="4.5000232"
     inkscape:document-units="mm"
     inkscape:current-layer="layer1"
     showgrid="false"
     fit-margin-top="0.1"
     fit-margin-left="0.1"
     fit-margin-bottom="0.1"
     fit-margin-right="0.1"
     inkscape:window-width="1280"
     inkscape:window-height="713"
     inkscape:window-x="58"
     inkscape:window-y="25"
     inkscape:window-maximized="0"
     inkscape:document-rotation="0" />
  <metadata
     id="metadata4589">
    <rdf:RDF>
      <cc:Work
         rdf:about="">
        <dc:format>image/svg+xml</dc:format>
        <dc:type
           rdf:resource="http://purl.org/dc/dcmitype/StillImage" />
        <dc:title />
      </cc:Work>
    </rdf:RDF>
  </metadata>
  <g
     inkscape:label="Layer 1"
     inkscape:groupmode="layer"
     id="layer1"
     transform="translate(-38.199471,-140.62452)">
    <g
       id="g5362"
       transform="matrix(0.78875747,0,0,0.78875747,11.012167,28.006759)"
       style="opacity:0.48;fill:#ffffff;fill-opacity:1">
      <path
         id="path5348"
         d="m 43.127599,142.90548 c -1.163892,0 -2.188755,0.62527 -2.786909,1.57459 -0.45189,-0.33568 -1.029092,-0.53589 -1.658298,-0.53589 -1.448202,0 -2.623611,1.06589 -2.623611,2.38177 0,0.21258 0.03294,0.41778 0.09043,0.61391 -0.930989,0.57452 -1.553908,1.62201 -1.553908,2.8205 0,1.81577 1.430845,3.28766 3.195153,3.28766 h 8.437211 c 1.05859,0 2.068607,-1.6117 2.068607,-3.21428 0,-1.51315 -0.898768,-2.61841 -1.890323,-2.7373 0.04073,-0.21927 0.06149,-0.44618 0.06149,-0.67799 0,-1.94074 -1.494671,-3.51297 -3.339848,-3.51297 z m -1.681552,3.47834 a 2.605766,2.605766 0 0 1 2.605527,2.60553 2.605766,2.605766 0 0 1 -2.605527,2.60604 2.605766,2.605766 0 0 1 -2.60604,-2.60604 2.605766,2.605766 0 0 1 2.60604,-2.60553 z"
         style="fill:#ffffff;fill-opacity:1;stroke:none;stroke-width:0.264583"
         inkscape:connector-curvature="0" />
      <ellipse
         style="fill:#ffffff;fill-opacity:1;stroke:none;stroke-width:0.162961"
         id="ellipse5354"
         transform="rotate(19.205818)"
         cx="88.146042"
         cy="125.12615"
         rx="0.53274959"
         ry="0.34370941" />
      <circle
         style="fill:#ffffff;fill-opacity:1;stroke:none;stroke-width:0.229626"
         id="circle5356"
         cx="42.925842"
         cy="147.63924"
         r="0.26637477" />
    </g>
    <g
       style="font-style:normal;font-variant:normal;font-weight:normal;font-stretch:normal;font-size:9.40741px;line-height:125%;font-family:'Open Sans';-inkscape-font-specification:'Open Sans';letter-spacing:0px;word-spacing:0px;fill:#f9f9f9;fill-opacity:1;stroke:none;stroke-width:0.235185px;stroke-linecap:butt;stroke-linejoin:miter;stroke-opacity:1"
       aria-label="ova"
       id="text5304">
      <path
         d="m 50.666463,145.4732 q 0,-0.96922 0.693612,-1.64905 0.693613,-0.67983 1.690394,-0.67983 1.001374,0 1.69958,0.68442 0.689019,0.68443 0.689019,1.68121 0,1.00597 -0.693612,1.6858 -0.698206,0.67524 -1.713361,0.67524 -1.005968,0 -1.6858,-0.68902 -0.679832,-0.67983 -0.679832,-1.70877 z m 1.056496,0.0184 q 0,0.67064 0.35829,1.06108 0.367476,0.39504 0.96922,0.39504 0.606336,0 0.96922,-0.39044 0.362883,-0.39045 0.362883,-1.04272 0,-0.65227 -0.362883,-1.04271 -0.367477,-0.39504 -0.96922,-0.39504 -0.592557,0 -0.960034,0.39504 -0.367476,0.39503 -0.367476,1.01975 z"
         style="font-style:normal;font-variant:normal;font-weight:500;font-stretch:normal;font-family:Futura;-inkscape-font-specification:'Futura Medium';letter-spacing:-0.383352px;fill:#f9f9f9;fill-opacity:1;stroke-width:0.235185px"
         id="path6551" />
      <path
         d="m 56.525624,143.26834 1.157552,2.51262 1.152958,-2.51262 h 1.162146 l -2.324291,4.78179 -2.305917,-4.78179 z"
         style="font-style:normal;font-variant:normal;font-weight:500;font-stretch:normal;font-family:Futura;-inkscape-font-specification:'Futura Medium';letter-spacing:-0.383352px;fill:#f9f9f9;fill-opacity:1;stroke-width:0.235185px"
         id="path6553" />
      <path
         d="m 63.459654,143.26834 h 1.038122 v 4.47403 h -1.038122 v -0.46853 q -0.638491,0.59715 -1.373444,0.59715 -0.927879,0 -1.534216,-0.67065 -0.601744,-0.68442 -0.601744,-1.70876 0,-1.00597 0.601744,-1.67662 0.601743,-0.67064 1.506655,-0.67064 0.780888,0 1.401005,0.64308 z m -2.452908,2.22324 q 0,0.64308 0.34451,1.0473 0.353696,0.40882 0.891131,0.40882 0.574183,0 0.927879,-0.39504 0.353697,-0.40881 0.353697,-1.03812 0,-0.6293 -0.353697,-1.03812 -0.353696,-0.39963 -0.918692,-0.39963 -0.532841,0 -0.891131,0.40422 -0.353697,0.40882 -0.353697,1.01057 z"
         style="font-style:normal;font-variant:normal;font-weight:500;font-stretch:normal;font-family:Futura;-inkscape-font-specification:'Futura Medium';letter-spacing:-0.383352px;fill:#f9f9f9;fill-opacity:1;stroke-width:0.235185px"
         id="path6555" />
    </g>
    <g
       aria-label="3"
       id="text850"
       style="font-style:normal;font-weight:normal;font-size:4.93889px;line-height:1.25;font-family:sans-serif;opacity:0.48;fill:#ffffff;fill-opacity:1;stroke:none;stroke-width:0.264583"
       transform="translate(-0.200122)">
      <path
         d="m 68.050167,141.56376 q 0,0.18328 -0.06029,0.33038 -0.05788,0.1447 -0.161575,0.25563 -0.101286,0.10852 -0.241157,0.18328 -0.137459,0.0724 -0.299034,0.11093 v 0.0145 q 0.426847,0.0531 0.6463,0.26045 0.219452,0.20498 0.219452,0.55466 0,0.23151 -0.0844,0.42926 -0.08199,0.19534 -0.255627,0.34003 -0.171221,0.14469 -0.434082,0.22669 -0.260449,0.0796 -0.614949,0.0796 -0.284565,0 -0.535368,-0.0482 -0.250803,-0.0458 -0.467844,-0.14228 v -0.63425 q 0.10852,0.0579 0.229098,0.10129 0.120579,0.0434 0.241157,0.0748 0.120579,0.0289 0.236334,0.0434 0.118167,0.0145 0.221864,0.0145 0.207395,0 0.344854,-0.0386 0.13746,-0.0386 0.219453,-0.10852 0.08199,-0.0699 0.115755,-0.1664 0.03617,-0.0989 0.03617,-0.21463 0,-0.10852 -0.04582,-0.19533 -0.04341,-0.0892 -0.144694,-0.14952 -0.09888,-0.0627 -0.26045,-0.0965 -0.161575,-0.0338 -0.397908,-0.0338 h -0.250803 v -0.52331 h 0.24598 q 0.221864,0 0.368969,-0.0386 0.147106,-0.041 0.233923,-0.10852 0.08923,-0.0699 0.125401,-0.16158 0.03617,-0.0916 0.03617,-0.19533 0,-0.18811 -0.118167,-0.29422 -0.115755,-0.1061 -0.36897,-0.1061 -0.115755,0 -0.217041,0.0241 -0.09887,0.0217 -0.185691,0.0579 -0.08441,0.0338 -0.156752,0.0772 -0.06994,0.041 -0.127813,0.082 l -0.376204,-0.49678 q 0.101286,-0.0748 0.219452,-0.13746 0.120579,-0.0627 0.26045,-0.10852 0.139871,-0.0482 0.301446,-0.0748 0.161575,-0.0265 0.344854,-0.0265 0.260449,0 0.472667,0.0579 0.214629,0.0555 0.366558,0.16399 0.151929,0.10611 0.233922,0.26286 0.08441,0.15434 0.08441,0.3545 z"
         style="font-style:normal;font-variant:normal;font-weight:bold;font-stretch:normal;font-size:4.93889px;font-family:'Droid Sans';-inkscape-font-specification:'Droid Sans Bold';fill:#ffffff;fill-opacity:1;stroke-width:0.264583"
         id="path852" />
    </g>
  </g>
</svg>
